<svg xmlns="http://www.w3.org/2000/svg" viewBox="0 0 926 16" width="926" height="16"><rect x="37.5" y="5.0" width="14" height="6" rx="1" fill="#D7A32E"/><rect x="59.5" y="5.0" width="14" height="6" rx="1" fill="#D31E25"/><rect x="81.5" y="5.0" width="14" height="6" rx="1" fill="#5DB5B7"/><rect x="103.5" y="5.0" width="14" height="6" rx="1" fill="#369E4B"/><rect x="125.5" y="5.0" width="14" height="6" rx="1" fill="#D1C02B"/><rect x="147.5" y="5.0" width="14" height="6" rx="1" fill="#ac829a"/><rect x="169.5" y="5.0" width="14" height="6" rx="1" fill="#31407B"/><rect x="191.5" y="5.0" width="14" height="6" rx="1" fill="#D7A32E"/><rect x="213.5" y="5.0" width="14" height="6" rx="1" fill="#D31E25"/><rect x="235.5" y="5.0" width="14" height="6" rx="1" fill="#5DB5B7"/><rect x="257.5" y="5.0" width="14" height="6" rx="1" fill="#369E4B"/><rect x="279.5" y="5.0" width="14" height="6" rx="1" fill="#D1C02B"/><rect x="301.5" y="5.0" width="14" height="6" rx="1" fill="#ac829a"/><rect x="323.5" y="5.0" width="14" height="6" rx="1" fill="#31407B"/><rect x="345.5" y="5.0" width="14" height="6" rx="1" fill="#D7A32E"/><rect x="367.5" y="5.0" width="14" height="6" rx="1" fill="#D31E25"/><rect x="389.5" y="5.0" width="14" height="6" rx="1" fill="#5DB5B7"/><rect x="411.5" y="5.0" width="14" height="6" rx="1" fill="#369E4B"/><rect x="433.5" y="5.0" width="14" height="6" rx="1" fill="#D1C02B"/><rect x="455.5" y="5.0" width="14" height="6" rx="1" fill="#ac829a"/><rect x="477.5" y="5.0" width="14" height="6" rx="1" fill="#31407B"/><rect x="499.5" y="5.0" width="14" height="6" rx="1" fill="#D7A32E"/><rect x="521.5" y="5.0" width="14" height="6" rx="1" fill="#D31E25"/><rect x="543.5" y="5.0" width="14" height="6" rx="1" fill="#5DB5B7"/><rect x="565.5" y="5.0" width="14" height="6" rx="1" fill="#369E4B"/><rect x="587.5" y="5.0" width="14" height="6" rx="1" fill="#D1C02B"/><rect x="609.5" y="5.0" width="14" height="6" rx="1" fill="#ac829a"/><rect x="631.5" y="5.0" width="14" height="6" rx="1" fill="#31407B"/><rect x="653.5" y="5.0" width="14" height="6" rx="1" fill="#D7A32E"/><rect x="675.5" y="5.0" width="14" height="6" rx="1" fill="#D31E25"/><rect x="697.5" y="5.0" width="14" height="6" rx="1" fill="#5DB5B7"/><rect x="719.5" y="5.0" width="14" height="6" rx="1" fill="#369E4B"/><rect x="741.5" y="5.0" width="14" height="6" rx="1" fill="#D1C02B"/><rect x="763.5" y="5.0" width="14" height="6" rx="1" fill="#ac829a"/><rect x="785.5" y="5.0" width="14" height="6" rx="1" fill="#31407B"/><rect x="807.5" y="5.0" width="14" height="6" rx="1" fill="#D7A32E"/><rect x="829.5" y="5.0" width="14" height="6" rx="1" fill="#D31E25"/><rect x="851.5" y="5.0" width="14" height="6" rx="1" fill="#5DB5B7"/><rect x="873.5" y="5.0" width="14" height="6" rx="1" fill="#369E4B"/><g><rect x="0" y="3.0" width="42" height="10" rx="1" fill="#ac829a"/><rect x="0" y="3.0" width="42" height="1.4" fill="#C8ACBC"/><rect x="0" y="3.0" width="1.4" height="10" fill="#C8ACBC"/><rect x="0" y="11.6" width="42" height="1.4" fill="#6E5363"/><rect x="40.6" y="3.0" width="1.4" height="10" fill="#6E5363"/><animateTransform attributeName="transform" type="translate" values="34.5,0;848.5,0;34.5,0" keyTimes="0;0.5;1" dur="3.2s" calcMode="spline" keySplines="0.45 0 0.55 1;0.45 0 0.55 1" repeatCount="indefinite" begin="-2.13s"/></g></svg>