<svg xmlns="http://www.w3.org/2000/svg" viewBox="0 0 357 132" width="357" height="132"><rect x="15" y="33" width="336" height="336" fill="#391c2c"/><rect x="6" y="24" width="336" height="336" fill="#803F64"/><path d="M6,24 H342 L337,29 H11 V355 L6,360 Z" fill="#ac829a"/><path d="M342,24 V360 H6 L11,355 H337 V29 Z" fill="#4c253c"/><rect x="24" y="42" width="300" height="300" fill="#D1C02B"/><rect x="36" y="54" width="34" height="34" fill="#FFFFFF"/><rect x="73" y="91" width="19" height="19" fill="#FFFFFF"/><g><g opacity="0"><set attributeName="opacity" to="1" begin="15.86s" fill="freeze"/><g fill="#000000" transform="translate(90.00,80.52) scale(0.02800,-0.02800)"><path transform="translate(0.0,0)" d="M315 240H265Q269 224 269 200Q269 177 265 160H215Q219 144 219 120Q219 97 215 80H165Q169 64 169 40Q169 17 165 0H85Q81 17 81 40Q81 64 85 80H135Q131 97 131 120Q131 144 135 160H185Q181 177 181 200Q181 224 185 240H235Q231 257 231 280Q231 304 235 320H185Q181 337 181 360Q181 384 185 400H135Q131 417 131 440Q131 464 135 480H85Q81 497 81 520Q81 544 85 560H165Q169 544 169 520Q169 497 165 480H215Q219 464 219 440Q219 417 215 400H265Q269 384 269 360Q269 337 265 320H315Q319 304 319 280Q319 257 315 240Z"/></g></g><g opacity="0"><set attributeName="opacity" to="1" begin="15.96s" fill="freeze"/><g fill="#000000" transform="translate(112.40,80.52) scale(0.02800,-0.02800)"><path transform="translate(0.0,0)" d="M90 320H120Q124 304 124 280Q124 257 120 240Q124 224 124 200Q124 177 120 160Q124 144 124 120Q124 97 120 80Q124 64 124 40Q124 17 120 0H40Q36 17 36 40Q36 64 40 80Q36 97 36 120Q36 144 40 160Q36 177 36 200Q36 224 40 240Q36 257 36 280Q36 304 40 320Q36 337 36 360Q36 384 40 400H90Q94 384 94 360Q94 337 90 320ZM200 320H230Q234 304 234 280Q234 257 230 240Q234 224 234 200Q234 177 230 160Q234 144 234 120Q234 97 230 80Q234 64 234 40Q234 17 230 0H170Q166 17 166 40Q166 64 170 80Q166 97 166 120Q166 144 170 160Q166 177 166 200Q166 224 170 240Q166 257 166 280Q166 304 170 320H120Q116 337 116 360Q116 384 120 400H200Q204 384 204 360Q204 337 200 320ZM364 200Q364 177 360 160Q364 144 364 120Q364 97 360 80Q364 64 364 40Q364 17 360 0H280Q276 17 276 40Q276 64 280 80Q276 97 276 120Q276 144 280 160Q276 177 276 200Q276 224 280 240Q276 257 276 280Q276 304 280 320H230Q226 337 226 360Q226 384 230 400H320Q324 384 324 360Q324 337 320 320H360Q364 304 364 280Q364 257 360 240Q364 224 364 200Z"/></g></g><g opacity="0"><set attributeName="opacity" to="1" begin="16.01s" fill="freeze"/><g fill="#000000" transform="translate(123.60,80.52) scale(0.02800,-0.02800)"><path transform="translate(0.0,0)" d="M360 160H330Q334 144 334 120Q334 97 330 80H280Q284 64 284 40Q284 17 280 0H120Q116 17 116 40Q116 64 120 80H70Q66 97 66 120Q66 144 70 160H40Q36 177 36 200Q36 224 40 240H70Q66 257 66 280Q66 304 70 320H120Q116 337 116 360Q116 384 120 400H280Q284 384 284 360Q284 337 280 320H330Q334 304 334 280Q334 257 330 240H360Q364 224 364 200Q364 177 360 160ZM280 160Q276 177 276 200Q276 224 280 240H250Q246 257 246 280Q246 304 250 320H150Q154 304 154 280Q154 257 150 240H120Q124 224 124 200Q124 177 120 160H150Q154 144 154 120Q154 97 150 80H250Q246 97 246 120Q246 144 250 160Z"/></g></g><g opacity="0"><set attributeName="opacity" to="1" begin="16.06s" fill="freeze"/><g fill="#000000" transform="translate(134.80,80.52) scale(0.02800,-0.02800)"><path transform="translate(0.0,0)" d="M364 280Q364 257 360 240H280Q276 257 276 280Q276 304 280 320H210Q214 304 214 280Q214 257 210 240H180Q184 224 184 200Q184 177 180 160Q184 144 184 120Q184 97 180 80H240Q244 64 244 40Q244 17 240 0H40Q36 17 36 40Q36 64 40 80H100Q96 97 96 120Q96 144 100 160Q96 177 96 200Q96 224 100 240Q96 257 96 280Q96 304 100 320H40Q36 337 36 360Q36 384 40 400H140Q144 384 144 360Q144 337 140 320H180Q176 337 176 360Q176 384 180 400H330Q334 384 334 360Q334 337 330 320H360Q364 304 364 280Z"/></g></g><g opacity="0"><set attributeName="opacity" to="1" begin="16.11s" fill="freeze"/><g fill="#000000" transform="translate(146.00,80.52) scale(0.02800,-0.02800)"><path transform="translate(0.0,0)" d="M360 240Q364 224 364 200Q364 177 360 160H150Q154 144 154 120Q154 97 150 80H320Q324 64 324 40Q324 17 320 0H120Q116 17 116 40Q116 64 120 80H70Q66 97 66 120Q66 144 70 160H40Q36 177 36 200Q36 224 40 240H70Q66 257 66 280Q66 304 70 320H120Q116 337 116 360Q116 384 120 400H320Q324 384 324 360Q324 337 320 320H360Q364 304 364 280Q364 257 360 240ZM276 280Q276 304 280 320H150Q154 304 154 280Q154 257 150 240H280Q276 257 276 280Z"/></g></g><g opacity="0"><set attributeName="opacity" to="1" begin="16.16s" fill="freeze"/><g fill="#000000" transform="translate(157.20,80.52) scale(0.02800,-0.02800)"><path transform="translate(0.0,0)" d="M285 560H235Q231 577 231 600Q231 624 235 640H285Q289 624 289 600Q289 577 285 560ZM239 40Q239 17 235 0H185Q181 17 181 40Q181 64 185 80H160Q156 97 156 120Q156 144 160 160H130Q126 177 126 200Q126 224 130 240Q126 257 126 280Q126 304 130 320Q126 337 126 360Q126 384 130 400H160Q156 417 156 440Q156 464 160 480H185Q181 497 181 520Q181 544 185 560H235Q239 544 239 520Q239 497 235 480H210Q214 464 214 440Q214 417 210 400Q214 384 214 360Q214 337 210 320Q214 304 214 280Q214 257 210 240Q214 224 214 200Q214 177 210 160Q214 144 214 120Q214 97 210 80H235Q239 64 239 40ZM285 0Q289 -16 289 -40Q289 -63 285 -80H235Q231 -63 231 -40Q231 -16 235 0Z"/></g></g><g opacity="0"><set attributeName="opacity" to="1" begin="16.21s" fill="freeze"/><g fill="#000000" transform="translate(168.40,80.52) scale(0.02800,-0.02800)"><path transform="translate(0.0,0)" d="M90 320H120Q124 304 124 280Q124 257 120 240Q124 224 124 200Q124 177 120 160Q124 144 124 120Q124 97 120 80Q124 64 124 40Q124 17 120 0H40Q36 17 36 40Q36 64 40 80Q36 97 36 120Q36 144 40 160Q36 177 36 200Q36 224 40 240Q36 257 36 280Q36 304 40 320Q36 337 36 360Q36 384 40 400H90Q94 384 94 360Q94 337 90 320ZM200 320H230Q234 304 234 280Q234 257 230 240Q234 224 234 200Q234 177 230 160Q234 144 234 120Q234 97 230 80Q234 64 234 40Q234 17 230 0H170Q166 17 166 40Q166 64 170 80Q166 97 166 120Q166 144 170 160Q166 177 166 200Q166 224 170 240Q166 257 166 280Q166 304 170 320H120Q116 337 116 360Q116 384 120 400H200Q204 384 204 360Q204 337 200 320ZM364 200Q364 177 360 160Q364 144 364 120Q364 97 360 80Q364 64 364 40Q364 17 360 0H280Q276 17 276 40Q276 64 280 80Q276 97 276 120Q276 144 280 160Q276 177 276 200Q276 224 280 240Q276 257 276 280Q276 304 280 320H230Q226 337 226 360Q226 384 230 400H320Q324 384 324 360Q324 337 320 320H360Q364 304 364 280Q364 257 360 240Q364 224 364 200Z"/></g></g><g opacity="0"><set attributeName="opacity" to="1" begin="16.26s" fill="freeze"/><g fill="#000000" transform="translate(179.60,80.52) scale(0.02800,-0.02800)"><path transform="translate(0.0,0)" d="M360 240Q364 224 364 200Q364 177 360 160H150Q154 144 154 120Q154 97 150 80H320Q324 64 324 40Q324 17 320 0H120Q116 17 116 40Q116 64 120 80H70Q66 97 66 120Q66 144 70 160H40Q36 177 36 200Q36 224 40 240H70Q66 257 66 280Q66 304 70 320H120Q116 337 116 360Q116 384 120 400H320Q324 384 324 360Q324 337 320 320H360Q364 304 364 280Q364 257 360 240ZM276 280Q276 304 280 320H150Q154 304 154 280Q154 257 150 240H280Q276 257 276 280Z"/></g></g><g opacity="0"><set attributeName="opacity" to="1" begin="16.31s" fill="freeze"/><g fill="#000000" transform="translate(190.80,80.52) scale(0.02800,-0.02800)"><path transform="translate(0.0,0)" d="M169 600Q169 577 165 560H115Q111 577 111 600Q111 624 115 640H165Q169 624 169 600ZM274 280Q274 257 270 240Q274 224 274 200Q274 177 270 160H240Q244 144 244 120Q244 97 240 80H215Q219 64 219 40Q219 17 215 0H165Q161 17 161 40Q161 64 165 80H190Q186 97 186 120Q186 144 190 160Q186 177 186 200Q186 224 190 240Q186 257 186 280Q186 304 190 320Q186 337 186 360Q186 384 190 400Q186 417 186 440Q186 464 190 480H165Q161 497 161 520Q161 544 165 560H215Q219 544 219 520Q219 497 215 480H240Q244 464 244 440Q244 417 240 400H270Q274 384 274 360Q274 337 270 320Q274 304 274 280ZM115 0H165Q169 -16 169 -40Q169 -63 165 -80H115Q111 -63 111 -40Q111 -16 115 0Z"/></g></g><animate attributeName="opacity" values="1;0.35;1" dur="1.1s" begin="16.66s" repeatCount="indefinite"/></g><g transform="translate(0,-234)"><animateTransform attributeName="transform" type="translate" values="0,-234;0,10;0,-4;0,0" keyTimes="0;0.55;0.78;1" dur="0.7s" begin="16.96s" calcMode="spline" keySplines="0.4 0 0.8 0.6;0.3 0.7 0.5 1;0.4 0 0.6 1" fill="freeze"/><path d="M54,142 H262 L308,176 V208 Q308,222 294,222 H54 Q40,222 40,208 V156 Q40,142 54,142 Z" fill="#D31E25"/><rect x="56" y="154" width="6" height="26" fill="#000BC4"/><rect x="56" y="154" width="6" height="26" fill="#8C91E4" opacity="0"><animate attributeName="opacity" values="0;1;0" keyTimes="0;0.5;1" dur="1.6s" begin="18.46s" repeatCount="indefinite"/></rect><rect x="67" y="154" width="6" height="26" fill="#000BC4"/><rect x="67" y="154" width="6" height="26" fill="#8C91E4" opacity="0"><animate attributeName="opacity" values="0;1;0" keyTimes="0;0.5;1" dur="1.6s" begin="18.86s" repeatCount="indefinite"/></rect><rect x="78" y="154" width="6" height="26" fill="#000BC4"/><rect x="78" y="154" width="6" height="26" fill="#8C91E4" opacity="0"><animate attributeName="opacity" values="0;1;0" keyTimes="0;0.5;1" dur="1.6s" begin="19.26s" repeatCount="indefinite"/></rect><rect x="89" y="154" width="6" height="26" fill="#000BC4"/><rect x="89" y="154" width="6" height="26" fill="#8C91E4" opacity="0"><animate attributeName="opacity" values="0;1;0" keyTimes="0;0.5;1" dur="1.6s" begin="19.66s" repeatCount="indefinite"/></rect><g fill="#000BC4" transform="translate(56.00,206.00) scale(0.01953,-0.01953)"><path transform="translate(0.0,0)" d="M512 0V128H768V0ZM512 384V640H256V384ZM0 0V768H640V640H768V384H640V256H512V128H384V256H256V0Z"/><path transform="translate(1024.0,0)" d="M0 0V768H768V640H256V512H640V384H256V128H768V0Z"/><path transform="translate(2048.0,0)" d="M0 128V256H128V128ZM128 0V128H384V384H128V512H0V640H128V768H640V640H256V512H640V384H768V128H640V0Z"/><path transform="translate(3072.0,0)" d="M0 128V768H128V128ZM128 0V128H384V256H512V768H768V128H640V0Z"/><path transform="translate(4096.0,0)" d="M0 0V768H128V640H256V512H384V640H512V768H768V0H512V384H384V256H256V384H128V0Z"/><path transform="translate(5120.0,0)" d="M0 0V768H768V640H256V512H640V384H256V128H768V0Z"/></g><polygon points="182.0,191.6 182.0,208.6 197.0,200.1" fill="#000BC4"/></g><g transform="translate(0,-340)"><animateTransform attributeName="transform" type="translate" values="0,-340;0,10;0,-4;0,0" keyTimes="0;0.55;0.78;1" dur="0.7s" begin="17.31s" calcMode="spline" keySplines="0.4 0 0.8 0.6;0.3 0.7 0.5 1;0.4 0 0.6 1" fill="freeze"/><path d="M54,248 H262 L308,282 V314 Q308,328 294,328 H54 Q40,328 40,314 V262 Q40,248 54,248 Z" fill="#000BC4"/><rect x="56" y="260" width="6" height="26" fill="#D31E25"/><rect x="56" y="260" width="6" height="26" fill="#EB9A9D" opacity="0"><animate attributeName="opacity" values="0;1;0" keyTimes="0;0.5;1" dur="1.6s" begin="18.66s" repeatCount="indefinite"/></rect><rect x="67" y="260" width="6" height="26" fill="#D31E25"/><rect x="67" y="260" width="6" height="26" fill="#EB9A9D" opacity="0"><animate attributeName="opacity" values="0;1;0" keyTimes="0;0.5;1" dur="1.6s" begin="19.06s" repeatCount="indefinite"/></rect><rect x="78" y="260" width="6" height="26" fill="#D31E25"/><rect x="78" y="260" width="6" height="26" fill="#EB9A9D" opacity="0"><animate attributeName="opacity" values="0;1;0" keyTimes="0;0.5;1" dur="1.6s" begin="19.46s" repeatCount="indefinite"/></rect><rect x="89" y="260" width="6" height="26" fill="#D31E25"/><rect x="89" y="260" width="6" height="26" fill="#EB9A9D" opacity="0"><animate attributeName="opacity" values="0;1;0" keyTimes="0;0.5;1" dur="1.6s" begin="19.86s" repeatCount="indefinite"/></rect><g fill="#D31E25" transform="translate(56.00,312.00) scale(0.01953,-0.01953)"><path transform="translate(0.0,0)" d="M128 0V128H0V640H128V768H640V640H768V512H512V640H256V128H512V256H768V128H640V0Z"/><path transform="translate(1024.0,0)" d="M512 0V128H768V0ZM512 384V640H256V384ZM0 0V768H640V640H768V384H640V256H512V128H384V256H256V0Z"/><path transform="translate(2048.0,0)" d="M0 0V768H768V640H256V512H640V384H256V128H768V0Z"/><path transform="translate(3072.0,0)" d="M384 128V640H128V128ZM0 0V768H640V640H768V128H640V0Z"/><path transform="translate(4096.0,0)" d="M0 0V768H768V640H256V512H640V384H256V128H768V0Z"/><path transform="translate(5120.0,0)" d="M0 0V768H128V640H256V512H384V384H512V768H768V0H512V128H384V256H256V384H128V0Z"/><path transform="translate(6144.0,0)" d="M256 0V640H0V768H768V640H512V0Z"/><path transform="translate(7168.0,0)" d="M128 0V128H256V640H128V768H640V640H512V128H640V0Z"/><path transform="translate(8192.0,0)" d="M0 0V640H128V384H384V640H128V768H640V640H768V0H384V256H128V0Z"/><path transform="translate(9216.0,0)" d="M0 0V768H256V128H768V0Z"/><path transform="translate(10240.0,0)" d="M0 128V256H128V128ZM128 0V128H384V384H128V512H0V640H128V768H640V640H256V512H640V384H768V128H640V0Z"/></g><polygon points="282.0,297.6 282.0,314.6 297.0,306.1" fill="#D31E25"/></g></svg>