<svg xmlns="http://www.w3.org/2000/svg" viewBox="0 0 529 627" width="529" height="627"><path d="M15,15 H880 V189 H505 V621 H15 Z" fill="#391c2c"/><path d="M6,6 H871 V180 H496 V612 H6 Z" fill="#803F64"/><path d="M6,6 H871 L866,11 H11 V607 L6,612 Z" fill="#ac829a"/><path d="M871,6 V180 H496 V612 H6 L11,607 H491 V175 H866 V11 Z" fill="#4c253c"/><path d="M24,24 H853 V162 H478 V594 H24 Z" fill="#D7A32E"/><rect x="38" y="36" width="40" height="40" fill="#FFFFFF"/><rect x="82" y="80" width="23" height="23" fill="#FFFFFF"/><g><g opacity="0"><set attributeName="opacity" to="1" begin="0.35s" fill="freeze"/><g fill="#000000" transform="translate(100.00,65.18) scale(0.02700,-0.02700)"><path transform="translate(0.0,0)" d="M315 240H265Q269 224 269 200Q269 177 265 160H215Q219 144 219 120Q219 97 215 80H165Q169 64 169 40Q169 17 165 0H85Q81 17 81 40Q81 64 85 80H135Q131 97 131 120Q131 144 135 160H185Q181 177 181 200Q181 224 185 240H235Q231 257 231 280Q231 304 235 320H185Q181 337 181 360Q181 384 185 400H135Q131 417 131 440Q131 464 135 480H85Q81 497 81 520Q81 544 85 560H165Q169 544 169 520Q169 497 165 480H215Q219 464 219 440Q219 417 215 400H265Q269 384 269 360Q269 337 265 320H315Q319 304 319 280Q319 257 315 240Z"/></g></g><g opacity="0"><set attributeName="opacity" to="1" begin="0.45s" fill="freeze"/><g fill="#000000" transform="translate(121.60,65.18) scale(0.02700,-0.02700)"><path transform="translate(0.0,0)" d="M364 280Q364 257 360 240Q364 224 364 200Q364 177 360 160Q364 144 364 120Q364 97 360 80Q364 64 364 40Q364 17 360 0H320Q324 -16 324 -40Q324 -63 320 -80H280Q284 -96 284 -120Q284 -143 280 -160H120Q116 -143 116 -120Q116 -96 120 -80H240Q236 -63 236 -40Q236 -16 240 0H280Q276 17 276 40Q276 64 280 80H240Q236 97 236 120Q236 144 240 160H280Q276 177 276 200Q276 224 280 240Q276 257 276 280Q276 304 280 320H150Q154 304 154 280Q154 257 150 240H120Q124 224 124 200Q124 177 120 160H150Q154 144 154 120Q154 97 150 80H240Q244 64 244 40Q244 17 240 0H120Q116 17 116 40Q116 64 120 80H70Q66 97 66 120Q66 144 70 160H40Q36 177 36 200Q36 224 40 240H70Q66 257 66 280Q66 304 70 320H120Q116 337 116 360Q116 384 120 400H360Q364 384 364 360Q364 337 360 320Q364 304 364 280Z"/></g></g><g opacity="0"><set attributeName="opacity" to="1" begin="0.50s" fill="freeze"/><g fill="#000000" transform="translate(132.40,65.18) scale(0.02700,-0.02700)"><path transform="translate(0.0,0)" d="M160 480Q156 497 156 520Q156 544 160 560H240Q244 544 244 520Q244 497 240 480ZM324 40Q324 17 320 0H80Q76 17 76 40Q76 64 80 80H160Q156 97 156 120Q156 144 160 160Q156 177 156 200Q156 224 160 240Q156 257 156 280Q156 304 160 320H100Q96 337 96 360Q96 384 100 400H240Q244 384 244 360Q244 337 240 320Q244 304 244 280Q244 257 240 240Q244 224 244 200Q244 177 240 160Q244 144 244 120Q244 97 240 80H320Q324 64 324 40Z"/></g></g><g opacity="0"><set attributeName="opacity" to="1" begin="0.55s" fill="freeze"/><g fill="#000000" transform="translate(143.20,65.18) scale(0.02700,-0.02700)"><path transform="translate(0.0,0)" d="M320 80Q324 64 324 40Q324 17 320 0H160Q156 17 156 40Q156 64 160 80H120Q116 97 116 120Q116 144 120 160Q116 177 116 200Q116 224 120 240Q116 257 116 280Q116 304 120 320H40Q36 337 36 360Q36 384 40 400H120Q116 417 116 440Q116 464 120 480Q116 497 116 520Q116 544 120 560H200Q204 544 204 520Q204 497 200 480Q204 464 204 440Q204 417 200 400H320Q324 384 324 360Q324 337 320 320H200Q204 304 204 280Q204 257 200 240Q204 224 204 200Q204 177 200 160Q204 144 204 120Q204 97 200 80Z"/></g></g><g opacity="0"><set attributeName="opacity" to="1" begin="0.60s" fill="freeze"/><g fill="#000000" transform="translate(154.00,65.18) scale(0.02700,-0.02700)"><path transform="translate(0.0,0)" d="M120 320H150Q154 304 154 280Q154 257 150 240H120Q124 224 124 200Q124 177 120 160Q124 144 124 120Q124 97 120 80Q124 64 124 40Q124 17 120 0H40Q36 17 36 40Q36 64 40 80Q36 97 36 120Q36 144 40 160Q36 177 36 200Q36 224 40 240Q36 257 36 280Q36 304 40 320Q36 337 36 360Q36 384 40 400Q36 417 36 440Q36 464 40 480Q36 497 36 520Q36 544 40 560H120Q124 544 124 520Q124 497 120 480Q124 464 124 440Q124 417 120 400Q124 384 124 360Q124 337 120 320ZM364 200Q364 177 360 160Q364 144 364 120Q364 97 360 80Q364 64 364 40Q364 17 360 0H280Q276 17 276 40Q276 64 280 80Q276 97 276 120Q276 144 280 160Q276 177 276 200Q276 224 280 240Q276 257 276 280Q276 304 280 320H150Q146 337 146 360Q146 384 150 400H310Q314 384 314 360Q314 337 310 320H360Q364 304 364 280Q364 257 360 240Q364 224 364 200Z"/></g></g><g opacity="0"><set attributeName="opacity" to="1" begin="0.65s" fill="freeze"/><g fill="#000000" transform="translate(164.80,65.18) scale(0.02700,-0.02700)"><path transform="translate(0.0,0)" d="M150 80H250Q254 64 254 40Q254 17 250 0H90Q86 17 86 40Q86 64 90 80H40Q36 97 36 120Q36 144 40 160Q36 177 36 200Q36 224 40 240Q36 257 36 280Q36 304 40 320Q36 337 36 360Q36 384 40 400H120Q124 384 124 360Q124 337 120 320Q124 304 124 280Q124 257 120 240Q124 224 124 200Q124 177 120 160H150Q154 144 154 120Q154 97 150 80ZM364 280Q364 257 360 240Q364 224 364 200Q364 177 360 160Q364 144 364 120Q364 97 360 80Q364 64 364 40Q364 17 360 0H280Q276 17 276 40Q276 64 280 80H250Q246 97 246 120Q246 144 250 160H280Q276 177 276 200Q276 224 280 240Q276 257 276 280Q276 304 280 320Q276 337 276 360Q276 384 280 400H360Q364 384 364 360Q364 337 360 320Q364 304 364 280Z"/></g></g><g opacity="0"><set attributeName="opacity" to="1" begin="0.70s" fill="freeze"/><g fill="#000000" transform="translate(175.60,65.18) scale(0.02700,-0.02700)"><path transform="translate(0.0,0)" d="M124 120Q124 97 120 80H80Q84 64 84 40Q84 17 80 0H40Q36 17 36 40Q36 64 40 80Q36 97 36 120Q36 144 40 160Q36 177 36 200Q36 224 40 240Q36 257 36 280Q36 304 40 320Q36 337 36 360Q36 384 40 400Q36 417 36 440Q36 464 40 480Q36 497 36 520Q36 544 40 560H120Q124 544 124 520Q124 497 120 480Q124 464 124 440Q124 417 120 400Q124 384 124 360Q124 337 120 320H160Q164 304 164 280Q164 257 160 240H120Q124 224 124 200Q124 177 120 160Q124 144 124 120ZM360 160H320Q324 144 324 120Q324 97 320 80H240Q236 97 236 120Q236 144 240 160H280Q276 177 276 200Q276 224 280 240H240Q236 257 236 280Q236 304 240 320H160Q156 337 156 360Q156 384 160 400H280Q284 384 284 360Q284 337 280 320H320Q324 304 324 280Q324 257 320 240H360Q364 224 364 200Q364 177 360 160ZM120 80H240Q244 64 244 40Q244 17 240 0H120Q116 17 116 40Q116 64 120 80Z"/></g></g><g opacity="0"><set attributeName="opacity" to="1" begin="0.75s" fill="freeze"/><g fill="#000000" transform="translate(186.40,65.18) scale(0.02700,-0.02700)"><path transform="translate(0.0,0)" d="M250 80Q254 64 254 40Q254 17 250 0H150Q146 17 146 40Q146 64 150 80Q146 97 146 120Q146 144 150 160H250Q254 144 254 120Q254 97 250 80Z"/></g></g><g opacity="0"><set attributeName="opacity" to="1" begin="0.80s" fill="freeze"/><g fill="#000000" transform="translate(197.20,65.18) scale(0.02700,-0.02700)"><path transform="translate(0.0,0)" d="M360 240Q364 224 364 200Q364 177 360 160H150Q154 144 154 120Q154 97 150 80H320Q324 64 324 40Q324 17 320 0H120Q116 17 116 40Q116 64 120 80H70Q66 97 66 120Q66 144 70 160H40Q36 177 36 200Q36 224 40 240H70Q66 257 66 280Q66 304 70 320H120Q116 337 116 360Q116 384 120 400H320Q324 384 324 360Q324 337 320 320H360Q364 304 364 280Q364 257 360 240ZM276 280Q276 304 280 320H150Q154 304 154 280Q154 257 150 240H280Q276 257 276 280Z"/></g></g><g opacity="0"><set attributeName="opacity" to="1" begin="0.85s" fill="freeze"/><g fill="#000000" transform="translate(208.00,65.18) scale(0.02700,-0.02700)"><path transform="translate(0.0,0)" d="M340 80Q344 64 344 40Q344 17 340 0H260Q256 17 256 40Q256 64 260 80H230Q226 97 226 120Q226 144 230 160H180Q184 144 184 120Q184 97 180 80H140Q144 64 144 40Q144 17 140 0H60Q56 17 56 40Q56 64 60 80H100Q96 97 96 120Q96 144 100 160H140Q136 177 136 200Q136 224 140 240H100Q96 257 96 280Q96 304 100 320H60Q56 337 56 360Q56 384 60 400H140Q144 384 144 360Q144 337 140 320H180Q184 304 184 280Q184 257 180 240H230Q226 257 226 280Q226 304 230 320H260Q256 337 256 360Q256 384 260 400H340Q344 384 344 360Q344 337 340 320H310Q314 304 314 280Q314 257 310 240H260Q264 224 264 200Q264 177 260 160H310Q314 144 314 120Q314 97 310 80Z"/></g></g><g opacity="0"><set attributeName="opacity" to="1" begin="0.90s" fill="freeze"/><g fill="#000000" transform="translate(218.80,65.18) scale(0.02700,-0.02700)"><path transform="translate(0.0,0)" d="M360 240Q364 224 364 200Q364 177 360 160H150Q154 144 154 120Q154 97 150 80H320Q324 64 324 40Q324 17 320 0H120Q116 17 116 40Q116 64 120 80H70Q66 97 66 120Q66 144 70 160H40Q36 177 36 200Q36 224 40 240H70Q66 257 66 280Q66 304 70 320H120Q116 337 116 360Q116 384 120 400H320Q324 384 324 360Q324 337 320 320H360Q364 304 364 280Q364 257 360 240ZM276 280Q276 304 280 320H150Q154 304 154 280Q154 257 150 240H280Q276 257 276 280Z"/></g></g><g opacity="0"><set attributeName="opacity" to="1" begin="1.00s" fill="freeze"/><g fill="#000000" transform="translate(240.40,65.18) scale(0.02700,-0.02700)"><path transform="translate(0.0,0)" d="M300 320Q304 304 304 280Q304 257 300 240H100Q96 257 96 280Q96 304 100 320Z"/></g></g><g opacity="0"><set attributeName="opacity" to="1" begin="1.05s" fill="freeze"/><g fill="#000000" transform="translate(251.20,65.18) scale(0.02700,-0.02700)"><path transform="translate(0.0,0)" d="M360 80Q364 64 364 40Q364 17 360 0H280Q276 17 276 40Q276 64 280 80H250Q246 97 246 120Q246 144 250 160H220Q216 177 216 200Q216 224 220 240H120Q124 224 124 200Q124 177 120 160Q124 144 124 120Q124 97 120 80Q124 64 124 40Q124 17 120 0H40Q36 17 36 40Q36 64 40 80Q36 97 36 120Q36 144 40 160Q36 177 36 200Q36 224 40 240Q36 257 36 280Q36 304 40 320Q36 337 36 360Q36 384 40 400Q36 417 36 440Q36 464 40 480Q36 497 36 520Q36 544 40 560H320Q324 544 324 520Q324 497 320 480H360Q364 464 364 440Q364 417 360 400H340Q344 384 344 360Q344 337 340 320H280Q284 304 284 280Q284 257 280 240H300Q304 224 304 200Q304 177 300 160H330Q334 144 334 120Q334 97 330 80ZM256 360Q256 384 260 400Q256 417 256 440Q256 464 260 480H120Q124 464 124 440Q124 417 120 400Q124 384 124 360Q124 337 120 320H260Q256 337 256 360Z"/></g></g><g opacity="0"><set attributeName="opacity" to="1" begin="1.10s" fill="freeze"/><g fill="#000000" transform="translate(262.00,65.18) scale(0.02700,-0.02700)"><path transform="translate(0.0,0)" d="M364 280Q364 257 360 240Q364 224 364 200Q364 177 360 160H320Q324 144 324 120Q324 97 320 80H280Q284 64 284 40Q284 17 280 0H40Q36 17 36 40Q36 64 40 80Q36 97 36 120Q36 144 40 160Q36 177 36 200Q36 224 40 240Q36 257 36 280Q36 304 40 320Q36 337 36 360Q36 384 40 400Q36 417 36 440Q36 464 40 480Q36 497 36 520Q36 544 40 560H280Q284 544 284 520Q284 497 280 480H320Q324 464 324 440Q324 417 320 400H360Q364 384 364 360Q364 337 360 320Q364 304 364 280ZM276 200Q276 224 280 240Q276 257 276 280Q276 304 280 320Q276 337 276 360Q276 384 280 400H240Q236 417 236 440Q236 464 240 480H120Q124 464 124 440Q124 417 120 400Q124 384 124 360Q124 337 120 320Q124 304 124 280Q124 257 120 240Q124 224 124 200Q124 177 120 160Q124 144 124 120Q124 97 120 80H240Q236 97 236 120Q236 144 240 160H280Q276 177 276 200Z"/></g></g><g opacity="0"><set attributeName="opacity" to="1" begin="1.15s" fill="freeze"/><g fill="#000000" transform="translate(272.80,65.18) scale(0.02700,-0.02700)"><path transform="translate(0.0,0)" d="M360 80Q364 64 364 40Q364 17 360 0H280Q276 17 276 40Q276 64 280 80H250Q246 97 246 120Q246 144 250 160H220Q216 177 216 200Q216 224 220 240H120Q124 224 124 200Q124 177 120 160Q124 144 124 120Q124 97 120 80Q124 64 124 40Q124 17 120 0H40Q36 17 36 40Q36 64 40 80Q36 97 36 120Q36 144 40 160Q36 177 36 200Q36 224 40 240Q36 257 36 280Q36 304 40 320Q36 337 36 360Q36 384 40 400Q36 417 36 440Q36 464 40 480Q36 497 36 520Q36 544 40 560H320Q324 544 324 520Q324 497 320 480H360Q364 464 364 440Q364 417 360 400H340Q344 384 344 360Q344 337 340 320H280Q284 304 284 280Q284 257 280 240H300Q304 224 304 200Q304 177 300 160H330Q334 144 334 120Q334 97 330 80ZM256 360Q256 384 260 400Q256 417 256 440Q256 464 260 480H120Q124 464 124 440Q124 417 120 400Q124 384 124 360Q124 337 120 320H260Q256 337 256 360Z"/></g></g><g opacity="0"><set attributeName="opacity" to="1" begin="1.25s" fill="freeze"/><g fill="#000000" transform="translate(294.40,65.18) scale(0.02700,-0.02700)"><path transform="translate(0.0,0)" d="M300 320Q304 304 304 280Q304 257 300 240H100Q96 257 96 280Q96 304 100 320Z"/></g></g><g opacity="0"><set attributeName="opacity" to="1" begin="1.30s" fill="freeze"/><g fill="#000000" transform="translate(305.20,65.18) scale(0.02700,-0.02700)"><path transform="translate(0.0,0)" d="M360 480H240Q244 464 244 440Q244 417 240 400Q244 384 244 360Q244 337 240 320Q244 304 244 280Q244 257 240 240Q244 224 244 200Q244 177 240 160Q244 144 244 120Q244 97 240 80Q244 64 244 40Q244 17 240 0H160Q156 17 156 40Q156 64 160 80Q156 97 156 120Q156 144 160 160Q156 177 156 200Q156 224 160 240Q156 257 156 280Q156 304 160 320Q156 337 156 360Q156 384 160 400Q156 417 156 440Q156 464 160 480H40Q36 497 36 520Q36 544 40 560H360Q364 544 364 520Q364 497 360 480Z"/></g></g><g opacity="0"><set attributeName="opacity" to="1" begin="1.35s" fill="freeze"/><g fill="#000000" transform="translate(316.00,65.18) scale(0.02700,-0.02700)"><path transform="translate(0.0,0)" d="M360 80Q364 64 364 40Q364 17 360 0H280Q276 17 276 40Q276 64 280 80H250Q246 97 246 120Q246 144 250 160H220Q216 177 216 200Q216 224 220 240H120Q124 224 124 200Q124 177 120 160Q124 144 124 120Q124 97 120 80Q124 64 124 40Q124 17 120 0H40Q36 17 36 40Q36 64 40 80Q36 97 36 120Q36 144 40 160Q36 177 36 200Q36 224 40 240Q36 257 36 280Q36 304 40 320Q36 337 36 360Q36 384 40 400Q36 417 36 440Q36 464 40 480Q36 497 36 520Q36 544 40 560H320Q324 544 324 520Q324 497 320 480H360Q364 464 364 440Q364 417 360 400H340Q344 384 344 360Q344 337 340 320H280Q284 304 284 280Q284 257 280 240H300Q304 224 304 200Q304 177 300 160H330Q334 144 334 120Q334 97 330 80ZM256 360Q256 384 260 400Q256 417 256 440Q256 464 260 480H120Q124 464 124 440Q124 417 120 400Q124 384 124 360Q124 337 120 320H260Q256 337 256 360Z"/></g></g><g opacity="0"><set attributeName="opacity" to="1" begin="1.40s" fill="freeze"/><g fill="#000000" transform="translate(326.80,65.18) scale(0.02700,-0.02700)"><path transform="translate(0.0,0)" d="M360 400Q364 384 364 360Q364 337 360 320H320Q324 304 324 280Q324 257 320 240H120Q124 224 124 200Q124 177 120 160Q124 144 124 120Q124 97 120 80Q124 64 124 40Q124 17 120 0H40Q36 17 36 40Q36 64 40 80Q36 97 36 120Q36 144 40 160Q36 177 36 200Q36 224 40 240Q36 257 36 280Q36 304 40 320Q36 337 36 360Q36 384 40 400Q36 417 36 440Q36 464 40 480Q36 497 36 520Q36 544 40 560H320Q324 544 324 520Q324 497 320 480H360Q364 464 364 440Q364 417 360 400ZM276 360Q276 384 280 400Q276 417 276 440Q276 464 280 480H120Q124 464 124 440Q124 417 120 400Q124 384 124 360Q124 337 120 320H280Q276 337 276 360Z"/></g></g><g opacity="0"><set attributeName="opacity" to="1" begin="1.45s" fill="freeze"/><g fill="#000000" transform="translate(337.60,65.18) scale(0.02700,-0.02700)"><path transform="translate(0.0,0)" d="M364 440Q364 417 360 400Q364 384 364 360Q364 337 360 320Q364 304 364 280Q364 257 360 240Q364 224 364 200Q364 177 360 160Q364 144 364 120Q364 97 360 80Q364 64 364 40Q364 17 360 0H280Q276 17 276 40Q276 64 280 80Q276 97 276 120Q276 144 280 160Q276 177 276 200Q276 224 280 240H120Q124 224 124 200Q124 177 120 160Q124 144 124 120Q124 97 120 80Q124 64 124 40Q124 17 120 0H40Q36 17 36 40Q36 64 40 80Q36 97 36 120Q36 144 40 160Q36 177 36 200Q36 224 40 240Q36 257 36 280Q36 304 40 320Q36 337 36 360Q36 384 40 400Q36 417 36 440Q36 464 40 480Q36 497 36 520Q36 544 40 560H120Q124 544 124 520Q124 497 120 480Q124 464 124 440Q124 417 120 400Q124 384 124 360Q124 337 120 320H280Q276 337 276 360Q276 384 280 400Q276 417 276 440Q276 464 280 480Q276 497 276 520Q276 544 280 560H360Q364 544 364 520Q364 497 360 480Q364 464 364 440Z"/></g></g><animate attributeName="opacity" values="1;0.35;1" dur="1.1s" begin="1.80s" repeatCount="indefinite"/></g><g opacity="0"><set attributeName="opacity" to="1" begin="1.80s" fill="freeze"/><g transform="rotate(-11.25 691.0 372.4)"><rect x="670.0" y="44.0" width="6" height="6" fill="#72BB81"/><rect x="676.0" y="44.0" width="6" height="6" fill="#72BB81"/><rect x="682.0" y="44.0" width="6" height="6" fill="#72BB81"/><rect x="688.0" y="44.0" width="6" height="6" fill="#72BB81"/><rect x="694.0" y="44.0" width="6" height="6" fill="#72BB81"/><rect x="700.0" y="44.0" width="6" height="6" fill="#72BB81"/><rect x="706.0" y="44.0" width="6" height="6" fill="#287638"/><rect x="670.0" y="50.0" width="6" height="6" fill="#72BB81"/><rect x="676.0" y="50.0" width="6" height="6" fill="#72BB81"/><rect x="682.0" y="50.0" width="6" height="6" fill="#72BB81"/><rect x="688.0" y="50.0" width="6" height="6" fill="#72BB81"/><rect x="694.0" y="50.0" width="6" height="6" fill="#72BB81"/><rect x="700.0" y="50.0" width="6" height="6" fill="#72BB81"/><rect x="706.0" y="50.0" width="6" height="6" fill="#287638"/><rect x="676.0" y="56.0" width="6" height="6" fill="#369E4B"/><rect x="682.0" y="56.0" width="6" height="6" fill="#369E4B"/><rect x="688.0" y="56.0" width="6" height="6" fill="#369E4B"/><rect x="694.0" y="56.0" width="6" height="6" fill="#369E4B"/><rect x="700.0" y="56.0" width="6" height="6" fill="#287638"/><rect x="682.0" y="62.0" width="6" height="6" fill="#369E4B"/><rect x="688.0" y="62.0" width="6" height="6" fill="#369E4B"/><rect x="694.0" y="62.0" width="6" height="6" fill="#287638"/><rect x="688.0" y="68.0" width="6" height="6" fill="#287638"/><rect x="682.0" y="74.0" width="6" height="6" fill="#287638"/><rect x="688.0" y="74.0" width="6" height="6" fill="#287638"/><rect x="694.0" y="74.0" width="6" height="6" fill="#287638"/><g><rect x="676.0" y="44.0" width="6" height="6" fill="#FFFFFF"/><rect x="676.0" y="50.0" width="6" height="3.0" fill="#FFFFFF"/><animate attributeName="opacity" values="1;1;0.15;1;1" keyTimes="0;0.42;0.5;0.58;1" dur="2.8s" begin="3.10s" repeatCount="indefinite"/></g><rect x="664.0" y="44.0" width="6" height="12" fill="#287638"/><rect x="712.0" y="44.0" width="6" height="12" fill="#287638"/><g fill="#000000" transform="translate(684.00,67.00) scale(0.01367,-0.01367)"><path transform="translate(0.0,0)" d="M512 128V384H256V128ZM512 512V640H256V512ZM0 0V768H640V640H768V512H640V384H768V128H640V0Z"/></g><rect x="658.0" y="83.0" width="66.0" height="28" fill="#000000" stroke="#8C6A1E" stroke-width="2"/><rect x="658.0" y="83.0" width="66.0" height="3" fill="#8C6A1E"/><g fill="#FFFFFF" transform="translate(671.00,96.00) scale(0.00781,-0.00781)"><path transform="translate(0.0,0)" d="M0 128V256H128V128ZM128 0V128H384V384H128V512H0V640H128V768H640V640H256V512H640V384H768V128H640V0Z"/><path transform="translate(1024.0,0)" d="M256 0V640H0V768H768V640H512V0Z"/><path transform="translate(2048.0,0)" d="M0 0V640H128V384H384V640H128V768H640V640H768V0H384V256H128V0Z"/><path transform="translate(3072.0,0)" d="M512 0V128H768V0ZM512 384V640H256V384ZM0 0V768H640V640H768V384H640V256H512V128H384V256H256V0Z"/><path transform="translate(4096.0,0)" d="M0 128V256H128V128ZM128 0V128H384V384H128V512H0V640H128V768H640V640H256V512H640V384H768V128H640V0Z"/></g><g fill="#FFFFFF" transform="translate(685.40,108.00) scale(0.01400,-0.01400)"><path transform="translate(0.0,0)" d="M324 40Q324 17 320 0H80Q76 17 76 40Q76 64 80 80H160Q156 97 156 120Q156 144 160 160Q156 177 156 200Q156 224 160 240Q156 257 156 280Q156 304 160 320Q156 337 156 360Q156 384 160 400H100Q96 417 96 440Q96 464 100 480H160Q156 497 156 520Q156 544 160 560H240Q244 544 244 520Q244 497 240 480Q244 464 244 440Q244 417 240 400Q244 384 244 360Q244 337 240 320Q244 304 244 280Q244 257 240 240Q244 224 244 200Q244 177 240 160Q244 144 244 120Q244 97 240 80H320Q324 64 324 40Z"/><path transform="translate(400.0,0)" d="M340 480Q344 464 344 440Q344 417 340 400H310Q314 384 314 360Q314 337 310 320H280Q284 304 284 280Q284 257 280 240H250Q254 224 254 200Q254 177 250 160H220Q224 144 224 120Q224 97 220 80H190Q194 64 194 40Q194 17 190 0H110Q106 17 106 40Q106 64 110 80H140Q136 97 136 120Q136 144 140 160H170Q166 177 166 200Q166 224 170 240H200Q196 257 196 280Q196 304 200 320H230Q226 337 226 360Q226 384 230 400H260Q256 417 256 440Q256 464 260 480H60Q56 497 56 520Q56 544 60 560H340Q344 544 344 520Q344 497 340 480Z"/></g></g></g><g opacity="0"><set attributeName="opacity" to="1" begin="1.95s" fill="freeze"/><g transform="rotate(-3.75 691.0 372.4)"><rect x="670.0" y="44.0" width="6" height="6" fill="#8ECBCD"/><rect x="676.0" y="44.0" width="6" height="6" fill="#8ECBCD"/><rect x="682.0" y="44.0" width="6" height="6" fill="#8ECBCD"/><rect x="688.0" y="44.0" width="6" height="6" fill="#8ECBCD"/><rect x="694.0" y="44.0" width="6" height="6" fill="#8ECBCD"/><rect x="700.0" y="44.0" width="6" height="6" fill="#8ECBCD"/><rect x="706.0" y="44.0" width="6" height="6" fill="#468889"/><rect x="670.0" y="50.0" width="6" height="6" fill="#8ECBCD"/><rect x="676.0" y="50.0" width="6" height="6" fill="#8ECBCD"/><rect x="682.0" y="50.0" width="6" height="6" fill="#8ECBCD"/><rect x="688.0" y="50.0" width="6" height="6" fill="#8ECBCD"/><rect x="694.0" y="50.0" width="6" height="6" fill="#8ECBCD"/><rect x="700.0" y="50.0" width="6" height="6" fill="#8ECBCD"/><rect x="706.0" y="50.0" width="6" height="6" fill="#468889"/><rect x="676.0" y="56.0" width="6" height="6" fill="#5DB5B7"/><rect x="682.0" y="56.0" width="6" height="6" fill="#5DB5B7"/><rect x="688.0" y="56.0" width="6" height="6" fill="#5DB5B7"/><rect x="694.0" y="56.0" width="6" height="6" fill="#5DB5B7"/><rect x="700.0" y="56.0" width="6" height="6" fill="#468889"/><rect x="682.0" y="62.0" width="6" height="6" fill="#5DB5B7"/><rect x="688.0" y="62.0" width="6" height="6" fill="#5DB5B7"/><rect x="694.0" y="62.0" width="6" height="6" fill="#468889"/><rect x="688.0" y="68.0" width="6" height="6" fill="#468889"/><rect x="682.0" y="74.0" width="6" height="6" fill="#468889"/><rect x="688.0" y="74.0" width="6" height="6" fill="#468889"/><rect x="694.0" y="74.0" width="6" height="6" fill="#468889"/><g><rect x="676.0" y="44.0" width="6" height="6" fill="#FFFFFF"/><rect x="676.0" y="50.0" width="6" height="3.0" fill="#FFFFFF"/><animate attributeName="opacity" values="1;1;0.15;1;1" keyTimes="0;0.42;0.5;0.58;1" dur="2.8s" begin="3.60s" repeatCount="indefinite"/></g><rect x="664.0" y="44.0" width="6" height="12" fill="#468889"/><rect x="712.0" y="44.0" width="6" height="12" fill="#468889"/><g fill="#000000" transform="translate(684.00,67.00) scale(0.01367,-0.01367)"><path transform="translate(0.0,0)" d="M0 0V640H128V384H384V640H128V768H640V640H768V0H384V256H128V0Z"/></g><rect x="656.0" y="83.0" width="70.0" height="28" fill="#000000" stroke="#8C6A1E" stroke-width="2"/><rect x="656.0" y="83.0" width="70.0" height="3" fill="#8C6A1E"/><g fill="#FFFFFF" transform="translate(663.00,96.00) scale(0.00781,-0.00781)"><path transform="translate(0.0,0)" d="M128 0V128H0V640H128V768H640V640H768V512H512V640H256V128H512V256H768V128H640V0Z"/><path transform="translate(1024.0,0)" d="M512 128V640H256V128ZM128 0V128H0V640H128V768H640V640H768V128H640V0Z"/><path transform="translate(2048.0,0)" d="M0 0V768H128V640H256V512H384V640H512V768H768V0H512V384H384V256H256V384H128V0Z"/><path transform="translate(3072.0,0)" d="M0 0V768H128V640H256V512H384V640H512V768H768V0H512V384H384V256H256V384H128V0Z"/><path transform="translate(4096.0,0)" d="M128 0V128H256V640H128V768H640V640H512V128H640V0Z"/><path transform="translate(5120.0,0)" d="M256 0V640H0V768H768V640H512V0Z"/><path transform="translate(6144.0,0)" d="M0 128V256H128V128ZM128 0V128H384V384H128V512H0V640H128V768H640V640H256V512H640V384H768V128H640V0Z"/></g><g fill="#FFFFFF" transform="translate(682.60,108.00) scale(0.01400,-0.01400)"><path transform="translate(0.0,0)" d="M360 160H320Q324 144 324 120Q324 97 320 80Q324 64 324 40Q324 17 320 0H240Q236 17 236 40Q236 64 240 80Q236 97 236 120Q236 144 240 160H40Q36 177 36 200Q36 224 40 240H70Q66 257 66 280Q66 304 70 320H100Q96 337 96 360Q96 384 100 400H130Q126 417 126 440Q126 464 130 480H180Q184 464 184 440Q184 417 180 400H150Q154 384 154 360Q154 337 150 320H120Q124 304 124 280Q124 257 120 240H240Q236 257 236 280Q236 304 240 320Q236 337 236 360Q236 384 240 400Q236 417 236 440Q236 464 240 480H180Q176 497 176 520Q176 544 180 560H320Q324 544 324 520Q324 497 320 480Q324 464 324 440Q324 417 320 400Q324 384 324 360Q324 337 320 320Q324 304 324 280Q324 257 320 240H360Q364 224 364 200Q364 177 360 160Z"/><path transform="translate(400.0,0)" d="M324 40Q324 17 320 0H80Q76 17 76 40Q76 64 80 80H160Q156 97 156 120Q156 144 160 160Q156 177 156 200Q156 224 160 240Q156 257 156 280Q156 304 160 320Q156 337 156 360Q156 384 160 400H100Q96 417 96 440Q96 464 100 480H160Q156 497 156 520Q156 544 160 560H240Q244 544 244 520Q244 497 240 480Q244 464 244 440Q244 417 240 400Q244 384 244 360Q244 337 240 320Q244 304 244 280Q244 257 240 240Q244 224 244 200Q244 177 240 160Q244 144 244 120Q244 97 240 80H320Q324 64 324 40Z"/><path transform="translate(800.0,0)" d="M340 320H290Q294 304 294 280Q294 257 290 240H240Q244 224 244 200Q244 177 240 160H190Q194 144 194 120Q194 97 190 80H340Q344 64 344 40Q344 17 340 0H60Q56 17 56 40Q56 64 60 80H110Q106 97 106 120Q106 144 110 160H160Q156 177 156 200Q156 224 160 240H210Q206 257 206 280Q206 304 210 320H260Q256 337 256 360Q256 384 260 400Q256 417 256 440Q256 464 260 480H120Q124 464 124 440Q124 417 120 400H60Q56 417 56 440Q56 464 60 480H100Q96 497 96 520Q96 544 100 560H300Q304 544 304 520Q304 497 300 480H340Q344 464 344 440Q344 417 340 400Q344 384 344 360Q344 337 340 320Z"/></g></g></g><g opacity="0"><set attributeName="opacity" to="1" begin="2.10s" fill="freeze"/><g transform="rotate(3.75 691.0 372.4)"><rect x="670.0" y="44.0" width="6" height="6" fill="#8ECBCD"/><rect x="676.0" y="44.0" width="6" height="6" fill="#8ECBCD"/><rect x="682.0" y="44.0" width="6" height="6" fill="#8ECBCD"/><rect x="688.0" y="44.0" width="6" height="6" fill="#8ECBCD"/><rect x="694.0" y="44.0" width="6" height="6" fill="#8ECBCD"/><rect x="700.0" y="44.0" width="6" height="6" fill="#8ECBCD"/><rect x="706.0" y="44.0" width="6" height="6" fill="#468889"/><rect x="670.0" y="50.0" width="6" height="6" fill="#8ECBCD"/><rect x="676.0" y="50.0" width="6" height="6" fill="#8ECBCD"/><rect x="682.0" y="50.0" width="6" height="6" fill="#8ECBCD"/><rect x="688.0" y="50.0" width="6" height="6" fill="#8ECBCD"/><rect x="694.0" y="50.0" width="6" height="6" fill="#8ECBCD"/><rect x="700.0" y="50.0" width="6" height="6" fill="#8ECBCD"/><rect x="706.0" y="50.0" width="6" height="6" fill="#468889"/><rect x="676.0" y="56.0" width="6" height="6" fill="#5DB5B7"/><rect x="682.0" y="56.0" width="6" height="6" fill="#5DB5B7"/><rect x="688.0" y="56.0" width="6" height="6" fill="#5DB5B7"/><rect x="694.0" y="56.0" width="6" height="6" fill="#5DB5B7"/><rect x="700.0" y="56.0" width="6" height="6" fill="#468889"/><rect x="682.0" y="62.0" width="6" height="6" fill="#5DB5B7"/><rect x="688.0" y="62.0" width="6" height="6" fill="#5DB5B7"/><rect x="694.0" y="62.0" width="6" height="6" fill="#468889"/><rect x="688.0" y="68.0" width="6" height="6" fill="#468889"/><rect x="682.0" y="74.0" width="6" height="6" fill="#468889"/><rect x="688.0" y="74.0" width="6" height="6" fill="#468889"/><rect x="694.0" y="74.0" width="6" height="6" fill="#468889"/><g><rect x="676.0" y="44.0" width="6" height="6" fill="#FFFFFF"/><rect x="676.0" y="50.0" width="6" height="3.0" fill="#FFFFFF"/><animate attributeName="opacity" values="1;1;0.15;1;1" keyTimes="0;0.42;0.5;0.58;1" dur="2.8s" begin="4.10s" repeatCount="indefinite"/></g><rect x="664.0" y="44.0" width="6" height="12" fill="#468889"/><rect x="712.0" y="44.0" width="6" height="12" fill="#468889"/><g fill="#000000" transform="translate(684.00,67.00) scale(0.01367,-0.01367)"><path transform="translate(0.0,0)" d="M0 0V640H128V384H384V640H128V768H640V640H768V0H384V256H128V0Z"/></g><rect x="658.0" y="83.0" width="66.0" height="28" fill="#000000" stroke="#8C6A1E" stroke-width="2"/><rect x="658.0" y="83.0" width="66.0" height="3" fill="#8C6A1E"/><g fill="#FFFFFF" transform="translate(679.00,96.00) scale(0.00781,-0.00781)"><path transform="translate(0.0,0)" d="M512 384V640H256V384ZM0 0V768H640V640H768V384H640V256H256V0Z"/><path transform="translate(1024.0,0)" d="M512 0V128H768V0ZM512 384V640H256V384ZM0 0V768H640V640H768V384H640V256H512V128H384V256H256V0Z"/><path transform="translate(2048.0,0)" d="M0 128V256H128V128ZM128 0V128H384V384H128V512H0V640H128V768H640V640H256V512H640V384H768V128H640V0Z"/></g><g fill="#FFFFFF" transform="translate(685.40,108.00) scale(0.01400,-0.01400)"><path transform="translate(0.0,0)" d="M340 320H300Q304 304 304 280Q304 257 300 240H340Q344 224 344 200Q344 177 340 160Q344 144 344 120Q344 97 340 80H300Q304 64 304 40Q304 17 300 0H100Q96 17 96 40Q96 64 100 80H60Q56 97 56 120Q56 144 60 160H140Q144 144 144 120Q144 97 140 80H260Q256 97 256 120Q256 144 260 160Q256 177 256 200Q256 224 260 240H160Q156 257 156 280Q156 304 160 320H260Q256 337 256 360Q256 384 260 400Q256 417 256 440Q256 464 260 480H140Q144 464 144 440Q144 417 140 400H60Q56 417 56 440Q56 464 60 480H100Q96 497 96 520Q96 544 100 560H300Q304 544 304 520Q304 497 300 480H340Q344 464 344 440Q344 417 340 400Q344 384 344 360Q344 337 340 320Z"/><path transform="translate(400.0,0)" d="M360 160H320Q324 144 324 120Q324 97 320 80Q324 64 324 40Q324 17 320 0H240Q236 17 236 40Q236 64 240 80Q236 97 236 120Q236 144 240 160H40Q36 177 36 200Q36 224 40 240H70Q66 257 66 280Q66 304 70 320H100Q96 337 96 360Q96 384 100 400H130Q126 417 126 440Q126 464 130 480H180Q184 464 184 440Q184 417 180 400H150Q154 384 154 360Q154 337 150 320H120Q124 304 124 280Q124 257 120 240H240Q236 257 236 280Q236 304 240 320Q236 337 236 360Q236 384 240 400Q236 417 236 440Q236 464 240 480H180Q176 497 176 520Q176 544 180 560H320Q324 544 324 520Q324 497 320 480Q324 464 324 440Q324 417 320 400Q324 384 324 360Q324 337 320 320Q324 304 324 280Q324 257 320 240H360Q364 224 364 200Q364 177 360 160Z"/></g></g></g><g opacity="0"><set attributeName="opacity" to="1" begin="2.25s" fill="freeze"/><g transform="rotate(11.25 691.0 372.4)"><rect x="670.0" y="44.0" width="6" height="6" fill="#FFFFFF"/><rect x="676.0" y="44.0" width="6" height="6" fill="#FFFFFF"/><rect x="682.0" y="44.0" width="6" height="6" fill="#FFFFFF"/><rect x="688.0" y="44.0" width="6" height="6" fill="#FFFFFF"/><rect x="694.0" y="44.0" width="6" height="6" fill="#FFFFFF"/><rect x="700.0" y="44.0" width="6" height="6" fill="#FFFFFF"/><rect x="706.0" y="44.0" width="6" height="6" fill="#BFBFBF"/><rect x="670.0" y="50.0" width="6" height="6" fill="#FFFFFF"/><rect x="676.0" y="50.0" width="6" height="6" fill="#FFFFFF"/><rect x="682.0" y="50.0" width="6" height="6" fill="#FFFFFF"/><rect x="688.0" y="50.0" width="6" height="6" fill="#FFFFFF"/><rect x="694.0" y="50.0" width="6" height="6" fill="#FFFFFF"/><rect x="700.0" y="50.0" width="6" height="6" fill="#FFFFFF"/><rect x="706.0" y="50.0" width="6" height="6" fill="#BFBFBF"/><rect x="676.0" y="56.0" width="6" height="6" fill="#FFFFFF"/><rect x="682.0" y="56.0" width="6" height="6" fill="#FFFFFF"/><rect x="688.0" y="56.0" width="6" height="6" fill="#FFFFFF"/><rect x="694.0" y="56.0" width="6" height="6" fill="#FFFFFF"/><rect x="700.0" y="56.0" width="6" height="6" fill="#BFBFBF"/><rect x="682.0" y="62.0" width="6" height="6" fill="#FFFFFF"/><rect x="688.0" y="62.0" width="6" height="6" fill="#FFFFFF"/><rect x="694.0" y="62.0" width="6" height="6" fill="#BFBFBF"/><rect x="688.0" y="68.0" width="6" height="6" fill="#BFBFBF"/><rect x="682.0" y="74.0" width="6" height="6" fill="#BFBFBF"/><rect x="688.0" y="74.0" width="6" height="6" fill="#BFBFBF"/><rect x="694.0" y="74.0" width="6" height="6" fill="#BFBFBF"/><g><rect x="676.0" y="44.0" width="6" height="6" fill="#FFFFFF"/><rect x="676.0" y="50.0" width="6" height="3.0" fill="#FFFFFF"/><animate attributeName="opacity" values="1;1;0.15;1;1" keyTimes="0;0.42;0.5;0.58;1" dur="2.8s" begin="4.60s" repeatCount="indefinite"/></g><rect x="664.0" y="44.0" width="6" height="12" fill="#BFBFBF"/><rect x="712.0" y="44.0" width="6" height="12" fill="#BFBFBF"/><g fill="#000000" transform="translate(684.00,67.00) scale(0.01367,-0.01367)"><path transform="translate(0.0,0)" d="M128 0V128H0V640H128V768H640V640H768V512H512V640H256V128H512V256H768V128H640V0Z"/></g><rect x="648.0" y="83.0" width="86.0" height="28" fill="#000000" stroke="#8C6A1E" stroke-width="2"/><rect x="648.0" y="83.0" width="86.0" height="3" fill="#8C6A1E"/><g fill="#FFFFFF" transform="translate(655.00,96.00) scale(0.00781,-0.00781)"><path transform="translate(0.0,0)" d="M0 0V768H768V640H256V384H640V256H256V0Z"/><path transform="translate(1024.0,0)" d="M512 128V640H256V128ZM128 0V128H0V640H128V768H640V640H768V128H640V0Z"/><path transform="translate(2048.0,0)" d="M0 0V768H256V128H768V0Z"/><path transform="translate(3072.0,0)" d="M0 0V768H256V128H768V0Z"/><path transform="translate(4096.0,0)" d="M512 128V640H256V128ZM128 0V128H0V640H128V768H640V640H768V128H640V0Z"/><path transform="translate(5120.0,0)" d="M0 0V768H128V384H256V512H384V384H512V768H768V0H512V128H384V256H256V128H128V0Z"/><path transform="translate(6144.0,0)" d="M0 0V768H768V640H256V512H640V384H256V128H768V0Z"/><path transform="translate(7168.0,0)" d="M512 0V128H768V0ZM512 384V640H256V384ZM0 0V768H640V640H768V384H640V256H512V128H384V256H256V0Z"/><path transform="translate(8192.0,0)" d="M0 128V256H128V128ZM128 0V128H384V384H128V512H0V640H128V768H640V640H256V512H640V384H768V128H640V0Z"/></g><g fill="#FFFFFF" transform="translate(688.20,108.00) scale(0.01400,-0.01400)"><path transform="translate(0.0,0)" d="M324 40Q324 17 320 0H80Q76 17 76 40Q76 64 80 80H160Q156 97 156 120Q156 144 160 160Q156 177 156 200Q156 224 160 240Q156 257 156 280Q156 304 160 320Q156 337 156 360Q156 384 160 400H100Q96 417 96 440Q96 464 100 480H160Q156 497 156 520Q156 544 160 560H240Q244 544 244 520Q244 497 240 480Q244 464 244 440Q244 417 240 400Q244 384 244 360Q244 337 240 320Q244 304 244 280Q244 257 240 240Q244 224 244 200Q244 177 240 160Q244 144 244 120Q244 97 240 80H320Q324 64 324 40Z"/></g></g></g><polygon points="277.0,360.0 307.0,390.0 277.0,420.0 247.0,390.0" fill="none" stroke="#000000" stroke-width="1.5"/><polygon points="277.0,330.0 337.0,390.0 277.0,450.0 217.0,390.0" fill="none" stroke="#000000" stroke-width="1.5"/><polygon points="277.0,300.0 367.0,390.0 277.0,480.0 187.0,390.0" fill="none" stroke="#000000" stroke-width="1.5"/><polygon points="277.0,270.0 397.0,390.0 277.0,510.0 157.0,390.0" fill="none" stroke="#000000" stroke-width="3"/><line x1="277.0" y1="270.0" x2="277.0" y2="510.0" stroke="#000000" stroke-width="1.5"/><line x1="157.0" y1="390.0" x2="397.0" y2="390.0" stroke="#000000" stroke-width="1.5"/><g transform="translate(277.0,390.0)"><g transform="scale(0)"><animateTransform attributeName="transform" type="scale" values="0;1.06;1" keyTimes="0;0.8;1" dur="0.9s" begin="1.70s" calcMode="spline" keySplines="0.2 0.7 0.3 1;0.4 0 0.6 1" fill="freeze"/><polygon points="0.0,-90.6 91.7,0.0 0.0,68.0 -52.5,0.0" fill="#31407B" fill-opacity="0.78" stroke="#000000" stroke-width="3"/><rect x="-4.0" y="-94.6" width="8" height="8" fill="#FFFFFF" stroke="#000000" stroke-width="2"/><rect x="87.7" y="-4.0" width="8" height="8" fill="#FFFFFF" stroke="#000000" stroke-width="2"/><rect x="-4.0" y="64.0" width="8" height="8" fill="#FFFFFF" stroke="#000000" stroke-width="2"/><rect x="-56.5" y="-4.0" width="8" height="8" fill="#FFFFFF" stroke="#000000" stroke-width="2"/></g><g><animateTransform attributeName="transform" type="scale" values="0.1;1" dur="3.4s" begin="2.90s" repeatCount="indefinite"/><polygon points="0,-120.0 120.0,0 0,120.0 -120.0,0" fill="none" stroke="#31407B" stroke-width="4" stroke-opacity="0"><animate attributeName="stroke-opacity" values="0.55;0" dur="3.4s" begin="2.90s" repeatCount="indefinite"/></polygon></g></g><g fill="#000000" transform="translate(231.50,244.00) scale(0.01270,-0.01270)"><path transform="translate(0.0,0)" d="M128 0V128H0V640H128V768H640V640H768V512H512V640H256V128H512V256H768V128H640V0Z"/><path transform="translate(1024.0,0)" d="M512 128V640H256V128ZM128 0V128H0V640H128V768H640V640H768V128H640V0Z"/><path transform="translate(2048.0,0)" d="M0 0V768H128V640H256V512H384V640H512V768H768V0H512V384H384V256H256V384H128V0Z"/><path transform="translate(3072.0,0)" d="M0 0V768H128V640H256V512H384V640H512V768H768V0H512V384H384V256H256V384H128V0Z"/><path transform="translate(4096.0,0)" d="M128 0V128H256V640H128V768H640V640H512V128H640V0Z"/><path transform="translate(5120.0,0)" d="M256 0V640H0V768H768V640H512V0Z"/><path transform="translate(6144.0,0)" d="M0 128V256H128V128ZM128 0V128H384V384H128V512H0V640H128V768H640V640H256V512H640V384H768V128H640V0Z"/></g><g fill="#000000" transform="translate(266.20,262.00) scale(0.01800,-0.01800)"><path transform="translate(0.0,0)" d="M360 160H320Q324 144 324 120Q324 97 320 80Q324 64 324 40Q324 17 320 0H240Q236 17 236 40Q236 64 240 80Q236 97 236 120Q236 144 240 160H40Q36 177 36 200Q36 224 40 240H70Q66 257 66 280Q66 304 70 320H100Q96 337 96 360Q96 384 100 400H130Q126 417 126 440Q126 464 130 480H180Q184 464 184 440Q184 417 180 400H150Q154 384 154 360Q154 337 150 320H120Q124 304 124 280Q124 257 120 240H240Q236 257 236 280Q236 304 240 320Q236 337 236 360Q236 384 240 400Q236 417 236 440Q236 464 240 480H180Q176 497 176 520Q176 544 180 560H320Q324 544 324 520Q324 497 320 480Q324 464 324 440Q324 417 320 400Q324 384 324 360Q324 337 320 320Q324 304 324 280Q324 257 320 240H360Q364 224 364 200Q364 177 360 160Z"/><path transform="translate(400.0,0)" d="M324 40Q324 17 320 0H80Q76 17 76 40Q76 64 80 80H160Q156 97 156 120Q156 144 160 160Q156 177 156 200Q156 224 160 240Q156 257 156 280Q156 304 160 320Q156 337 156 360Q156 384 160 400H100Q96 417 96 440Q96 464 100 480H160Q156 497 156 520Q156 544 160 560H240Q244 544 244 520Q244 497 240 480Q244 464 244 440Q244 417 240 400Q244 384 244 360Q244 337 240 320Q244 304 244 280Q244 257 240 240Q244 224 244 200Q244 177 240 160Q244 144 244 120Q244 97 240 80H320Q324 64 324 40Z"/><path transform="translate(800.0,0)" d="M340 320H290Q294 304 294 280Q294 257 290 240H240Q244 224 244 200Q244 177 240 160H190Q194 144 194 120Q194 97 190 80H340Q344 64 344 40Q344 17 340 0H60Q56 17 56 40Q56 64 60 80H110Q106 97 106 120Q106 144 110 160H160Q156 177 156 200Q156 224 160 240H210Q206 257 206 280Q206 304 210 320H260Q256 337 256 360Q256 384 260 400Q256 417 256 440Q256 464 260 480H120Q124 464 124 440Q124 417 120 400H60Q56 417 56 440Q56 464 60 480H100Q96 497 96 520Q96 544 100 560H300Q304 544 304 520Q304 497 300 480H340Q344 464 344 440Q344 417 340 400Q344 384 344 360Q344 337 340 320Z"/></g><g fill="#000000" transform="translate(409.00,378.00) scale(0.01270,-0.01270)"><path transform="translate(0.0,0)" d="M512 384V640H256V384ZM0 0V768H640V640H768V384H640V256H256V0Z"/><path transform="translate(1024.0,0)" d="M512 0V128H768V0ZM512 384V640H256V384ZM0 0V768H640V640H768V384H640V256H512V128H384V256H256V0Z"/><path transform="translate(2048.0,0)" d="M0 128V256H128V128ZM128 0V128H384V384H128V512H0V640H128V768H640V640H256V512H640V384H768V128H640V0Z"/></g><g fill="#000000" transform="translate(409.00,398.00) scale(0.01800,-0.01800)"><path transform="translate(0.0,0)" d="M340 320H300Q304 304 304 280Q304 257 300 240H340Q344 224 344 200Q344 177 340 160Q344 144 344 120Q344 97 340 80H300Q304 64 304 40Q304 17 300 0H100Q96 17 96 40Q96 64 100 80H60Q56 97 56 120Q56 144 60 160H140Q144 144 144 120Q144 97 140 80H260Q256 97 256 120Q256 144 260 160Q256 177 256 200Q256 224 260 240H160Q156 257 156 280Q156 304 160 320H260Q256 337 256 360Q256 384 260 400Q256 417 256 440Q256 464 260 480H140Q144 464 144 440Q144 417 140 400H60Q56 417 56 440Q56 464 60 480H100Q96 497 96 520Q96 544 100 560H300Q304 544 304 520Q304 497 300 480H340Q344 464 344 440Q344 417 340 400Q344 384 344 360Q344 337 340 320Z"/><path transform="translate(400.0,0)" d="M360 160H320Q324 144 324 120Q324 97 320 80Q324 64 324 40Q324 17 320 0H240Q236 17 236 40Q236 64 240 80Q236 97 236 120Q236 144 240 160H40Q36 177 36 200Q36 224 40 240H70Q66 257 66 280Q66 304 70 320H100Q96 337 96 360Q96 384 100 400H130Q126 417 126 440Q126 464 130 480H180Q184 464 184 440Q184 417 180 400H150Q154 384 154 360Q154 337 150 320H120Q124 304 124 280Q124 257 120 240H240Q236 257 236 280Q236 304 240 320Q236 337 236 360Q236 384 240 400Q236 417 236 440Q236 464 240 480H180Q176 497 176 520Q176 544 180 560H320Q324 544 324 520Q324 497 320 480Q324 464 324 440Q324 417 320 400Q324 384 324 360Q324 337 320 320Q324 304 324 280Q324 257 320 240H360Q364 224 364 200Q364 177 360 160Z"/></g><g fill="#000000" transform="translate(238.00,532.00) scale(0.01270,-0.01270)"><path transform="translate(0.0,0)" d="M128 0V128H256V640H128V768H640V640H512V128H640V0Z"/><path transform="translate(1024.0,0)" d="M0 128V256H128V128ZM128 0V128H384V384H128V512H0V640H128V768H640V640H256V512H640V384H768V128H640V0Z"/><path transform="translate(2048.0,0)" d="M0 128V256H128V128ZM128 0V128H384V384H128V512H0V640H128V768H640V640H256V512H640V384H768V128H640V0Z"/><path transform="translate(3072.0,0)" d="M0 128V768H128V128ZM128 0V128H384V256H512V768H768V128H640V0Z"/><path transform="translate(4096.0,0)" d="M0 0V768H768V640H256V512H640V384H256V128H768V0Z"/><path transform="translate(5120.0,0)" d="M0 128V256H128V128ZM128 0V128H384V384H128V512H0V640H128V768H640V640H256V512H640V384H768V128H640V0Z"/></g><g fill="#000000" transform="translate(273.40,550.00) scale(0.01800,-0.01800)"><path transform="translate(0.0,0)" d="M135 320H235Q239 304 239 280Q239 257 235 240H95Q91 257 91 280Q91 304 95 320H55Q51 337 51 360Q51 384 55 400Q51 417 51 440Q51 464 55 480H115Q111 497 111 520Q111 544 115 560H235Q239 544 239 520Q239 497 235 480H135Q139 464 139 440Q139 417 135 400Q139 384 139 360Q139 337 135 320ZM349 280Q349 257 345 240Q349 224 349 200Q349 177 345 160H315Q319 144 319 120Q319 97 315 80H235Q231 97 231 120Q231 144 235 160H265Q261 177 261 200Q261 224 265 240Q261 257 261 280Q261 304 265 320H235Q231 337 231 360Q231 384 235 400Q231 417 231 440Q231 464 235 480H315Q319 464 319 440Q319 417 315 400H345Q349 384 349 360Q349 337 345 320Q349 304 349 280ZM95 80H235Q239 64 239 40Q239 17 235 0H95Q91 17 91 40Q91 64 95 80Z"/></g><g fill="#000000" transform="translate(54.00,378.00) scale(0.01270,-0.01270)"><path transform="translate(0.0,0)" d="M512 0V128H768V0ZM512 384V640H256V384ZM0 0V768H640V640H768V384H640V256H512V128H384V256H256V0Z"/><path transform="translate(1024.0,0)" d="M0 0V768H768V640H256V512H640V384H256V128H768V0Z"/><path transform="translate(2048.0,0)" d="M128 128V256H256V128ZM0 256V768H128V256ZM256 0V128H384V256H512V768H768V256H640V128H512V0Z"/><path transform="translate(3072.0,0)" d="M128 0V128H256V640H128V768H640V640H512V128H640V0Z"/><path transform="translate(4096.0,0)" d="M0 0V768H768V640H256V512H640V384H256V128H768V0Z"/><path transform="translate(5120.0,0)" d="M0 0V768H128V384H256V512H384V384H512V768H768V0H512V128H384V256H256V128H128V0Z"/><path transform="translate(6144.0,0)" d="M0 128V256H128V128ZM128 0V128H384V384H128V512H0V640H128V768H640V640H256V512H640V384H768V128H640V0Z"/></g><g fill="#000000" transform="translate(137.80,398.00) scale(0.01800,-0.01800)"><path transform="translate(0.0,0)" d="M360 160H320Q324 144 324 120Q324 97 320 80Q324 64 324 40Q324 17 320 0H240Q236 17 236 40Q236 64 240 80Q236 97 236 120Q236 144 240 160H40Q36 177 36 200Q36 224 40 240H70Q66 257 66 280Q66 304 70 320H100Q96 337 96 360Q96 384 100 400H130Q126 417 126 440Q126 464 130 480H180Q184 464 184 440Q184 417 180 400H150Q154 384 154 360Q154 337 150 320H120Q124 304 124 280Q124 257 120 240H240Q236 257 236 280Q236 304 240 320Q236 337 236 360Q236 384 240 400Q236 417 236 440Q236 464 240 480H180Q176 497 176 520Q176 544 180 560H320Q324 544 324 520Q324 497 320 480Q324 464 324 440Q324 417 320 400Q324 384 324 360Q324 337 320 320Q324 304 324 280Q324 257 320 240H360Q364 224 364 200Q364 177 360 160Z"/></g></svg>