<svg xmlns="http://www.w3.org/2000/svg" viewBox="0.0 23.5 879.0 291.1" width="879" height="291.1"><rect x="39" y="39" width="820" height="270" fill="#391c2c"/><rect x="30" y="30" width="820" height="270" fill="#803F64"/><path d="M30,30 H850 L845,35 H35 V295 L30,300 Z" fill="#ac829a"/><path d="M850,30 V300 H30 L35,295 H845 V35 Z" fill="#4c253c"/><rect x="48" y="48" width="784" height="234" fill="#5DB5B7"/><rect x="62" y="62" width="34" height="34" fill="#FFFFFF"/><rect x="99" y="99" width="19" height="19" fill="#FFFFFF"/><g opacity="0" fill="#000000" transform="translate(114.00,84.88) scale(0.01367,-0.01367)"><path transform="translate(0.0,0)" d="M0 0V768H128V512H512V768H768V0H512V384H128V0Z"/><path transform="translate(1024.0,0)" d="M128 0V128H256V640H128V768H640V640H512V128H640V0Z"/><path transform="translate(2048.0,0)" d="M256 0V128H640V0ZM256 256V768H640V256Z"/><path transform="translate(3584.0,0)" d="M0 0V768H128V512H512V768H768V0H512V384H128V0Z"/><path transform="translate(4608.0,0)" d="M0 0V640H128V384H384V640H128V768H640V640H768V0H384V256H128V0Z"/><path transform="translate(5632.0,0)" d="M128 128V256H256V128ZM0 256V768H128V256ZM256 0V128H384V256H512V768H768V256H640V128H512V0Z"/><path transform="translate(6656.0,0)" d="M0 0V768H768V640H256V512H640V384H256V128H768V0Z"/><path transform="translate(8192.0,0)" d="M256 0V384H128V512H0V768H256V512H512V768H768V512H640V384H512V0Z"/><path transform="translate(9216.0,0)" d="M512 128V640H256V128ZM128 0V128H0V640H128V768H640V640H768V128H640V0Z"/><path transform="translate(10240.0,0)" d="M0 128V768H128V128ZM128 0V128H384V256H512V768H768V128H640V0Z"/><path transform="translate(11776.0,0)" d="M0 0V768H128V640H256V512H384V640H512V768H768V0H512V384H384V256H256V384H128V0Z"/><path transform="translate(12800.0,0)" d="M0 0V768H768V640H256V512H640V384H256V128H768V0Z"/><path transform="translate(13824.0,0)" d="M256 0V640H0V768H768V640H512V0Z"/><path transform="translate(15360.0,0)" d="M0 0V256H256V0Z"/><path transform="translate(16384.0,0)" d="M0 0V256H256V0Z"/><path transform="translate(17408.0,0)" d="M0 0V256H256V0Z"/><set attributeName="opacity" to="1" begin="0.200s" fill="freeze"/></g><g id="code0"><animate attributeName="opacity" values="1;0.3;1;0.3;1" dur="0.5s" begin="2.030s"/><set attributeName="opacity" to="0.42" begin="2.530s" fill="freeze"/><g opacity="0" fill="#000000" transform="translate(62.00,134.00) scale(0.01700,-0.01700)"><path transform="translate(0.0,0)" d="M315 240H265Q269 224 269 200Q269 177 265 160H215Q219 144 219 120Q219 97 215 80H165Q169 64 169 40Q169 17 165 0H85Q81 17 81 40Q81 64 85 80H135Q131 97 131 120Q131 144 135 160H185Q181 177 181 200Q181 224 185 240H235Q231 257 231 280Q231 304 235 320H185Q181 337 181 360Q181 384 185 400H135Q131 417 131 440Q131 464 135 480H85Q81 497 81 520Q81 544 85 560H165Q169 544 169 520Q169 497 165 480H215Q219 464 219 440Q219 417 215 400H265Q269 384 269 360Q269 337 265 320H315Q319 304 319 280Q319 257 315 240Z"/><set attributeName="opacity" to="1" begin="1.400s" fill="freeze"/></g><g opacity="0" fill="#000000" transform="translate(75.60,134.00) scale(0.01700,-0.01700)"><path transform="translate(0.0,0)" d="M124 120Q124 97 120 80H80Q84 64 84 40Q84 17 80 0H40Q36 17 36 40Q36 64 40 80Q36 97 36 120Q36 144 40 160Q36 177 36 200Q36 224 40 240Q36 257 36 280Q36 304 40 320Q36 337 36 360Q36 384 40 400Q36 417 36 440Q36 464 40 480Q36 497 36 520Q36 544 40 560H120Q124 544 124 520Q124 497 120 480Q124 464 124 440Q124 417 120 400Q124 384 124 360Q124 337 120 320H160Q164 304 164 280Q164 257 160 240H120Q124 224 124 200Q124 177 120 160Q124 144 124 120ZM360 160H320Q324 144 324 120Q324 97 320 80H240Q236 97 236 120Q236 144 240 160H280Q276 177 276 200Q276 224 280 240H240Q236 257 236 280Q236 304 240 320H160Q156 337 156 360Q156 384 160 400H280Q284 384 284 360Q284 337 280 320H320Q324 304 324 280Q324 257 320 240H360Q364 224 364 200Q364 177 360 160ZM120 80H240Q244 64 244 40Q244 17 240 0H120Q116 17 116 40Q116 64 120 80Z"/><set attributeName="opacity" to="1" begin="1.580s" fill="freeze"/></g><g opacity="0" fill="#000000" transform="translate(82.40,134.00) scale(0.01700,-0.01700)"><path transform="translate(0.0,0)" d="M360 160H330Q334 144 334 120Q334 97 330 80H280Q284 64 284 40Q284 17 280 0H120Q116 17 116 40Q116 64 120 80H70Q66 97 66 120Q66 144 70 160H40Q36 177 36 200Q36 224 40 240H70Q66 257 66 280Q66 304 70 320H120Q116 337 116 360Q116 384 120 400H280Q284 384 284 360Q284 337 280 320H330Q334 304 334 280Q334 257 330 240H360Q364 224 364 200Q364 177 360 160ZM280 160Q276 177 276 200Q276 224 280 240H250Q246 257 246 280Q246 304 250 320H150Q154 304 154 280Q154 257 150 240H120Q124 224 124 200Q124 177 120 160H150Q154 144 154 120Q154 97 150 80H250Q246 97 246 120Q246 144 250 160Z"/><set attributeName="opacity" to="1" begin="1.630s" fill="freeze"/></g><g opacity="0" fill="#000000" transform="translate(89.20,134.00) scale(0.01700,-0.01700)"><path transform="translate(0.0,0)" d="M360 160H330Q334 144 334 120Q334 97 330 80H280Q284 64 284 40Q284 17 280 0H120Q116 17 116 40Q116 64 120 80H70Q66 97 66 120Q66 144 70 160H40Q36 177 36 200Q36 224 40 240H70Q66 257 66 280Q66 304 70 320H120Q116 337 116 360Q116 384 120 400H280Q284 384 284 360Q284 337 280 320H330Q334 304 334 280Q334 257 330 240H360Q364 224 364 200Q364 177 360 160ZM280 160Q276 177 276 200Q276 224 280 240H250Q246 257 246 280Q246 304 250 320H150Q154 304 154 280Q154 257 150 240H120Q124 224 124 200Q124 177 120 160H150Q154 144 154 120Q154 97 150 80H250Q246 97 246 120Q246 144 250 160Z"/><set attributeName="opacity" to="1" begin="1.680s" fill="freeze"/></g><g opacity="0" fill="#000000" transform="translate(96.00,134.00) scale(0.01700,-0.01700)"><path transform="translate(0.0,0)" d="M320 80Q324 64 324 40Q324 17 320 0H160Q156 17 156 40Q156 64 160 80H120Q116 97 116 120Q116 144 120 160Q116 177 116 200Q116 224 120 240Q116 257 116 280Q116 304 120 320H40Q36 337 36 360Q36 384 40 400H120Q116 417 116 440Q116 464 120 480Q116 497 116 520Q116 544 120 560H200Q204 544 204 520Q204 497 200 480Q204 464 204 440Q204 417 200 400H320Q324 384 324 360Q324 337 320 320H200Q204 304 204 280Q204 257 200 240Q204 224 204 200Q204 177 200 160Q204 144 204 120Q204 97 200 80Z"/><set attributeName="opacity" to="1" begin="1.730s" fill="freeze"/></g><g opacity="0" fill="#000000" transform="translate(102.80,134.00) scale(0.01700,-0.01700)"><path transform="translate(0.0,0)" d="M250 80Q254 64 254 40Q254 17 250 0H150Q146 17 146 40Q146 64 150 80Q146 97 146 120Q146 144 150 160H250Q254 144 254 120Q254 97 250 80Z"/><set attributeName="opacity" to="1" begin="1.780s" fill="freeze"/></g><g opacity="0" fill="#000000" transform="translate(109.60,134.00) scale(0.01700,-0.01700)"><path transform="translate(0.0,0)" d="M340 80H300Q304 64 304 40Q304 17 300 0H80Q76 17 76 40Q76 64 80 80H260Q256 97 256 120Q256 144 260 160H100Q96 177 96 200Q96 224 100 240H60Q56 257 56 280Q56 304 60 320H100Q96 337 96 360Q96 384 100 400H320Q324 384 324 360Q324 337 320 320H140Q144 304 144 280Q144 257 140 240H300Q304 224 304 200Q304 177 300 160H340Q344 144 344 120Q344 97 340 80Z"/><set attributeName="opacity" to="1" begin="1.830s" fill="freeze"/></g><g opacity="0" fill="#000000" transform="translate(116.40,134.00) scale(0.01700,-0.01700)"><path transform="translate(0.0,0)" d="M360 320H330Q334 304 334 280Q334 257 330 240H300Q304 224 304 200Q304 177 300 160H280Q284 144 284 120Q284 97 280 80H250Q254 64 254 40Q254 17 250 0H230Q234 -16 234 -40Q234 -63 230 -80H190Q194 -96 194 -120Q194 -143 190 -160H70Q66 -143 66 -120Q66 -96 70 -80H150Q146 -63 146 -40Q146 -16 150 0Q146 17 146 40Q146 64 150 80H110Q106 97 106 120Q106 144 110 160H90Q86 177 86 200Q86 224 90 240H60Q56 257 56 280Q56 304 60 320H30Q26 337 26 360Q26 384 30 400H110Q114 384 114 360Q114 337 110 320H140Q144 304 144 280Q144 257 140 240H170Q174 224 174 200Q174 177 170 160Q174 144 174 120Q174 97 170 80H200Q196 97 196 120Q196 144 200 160H220Q216 177 216 200Q216 224 220 240H250Q246 257 246 280Q246 304 250 320H280Q276 337 276 360Q276 384 280 400H360Q364 384 364 360Q364 337 360 320Z"/><set attributeName="opacity" to="1" begin="1.880s" fill="freeze"/></g><g opacity="0" fill="#000000" transform="translate(123.20,134.00) scale(0.01700,-0.01700)"><path transform="translate(0.0,0)" d="M340 80H300Q304 64 304 40Q304 17 300 0H80Q76 17 76 40Q76 64 80 80H260Q256 97 256 120Q256 144 260 160H100Q96 177 96 200Q96 224 100 240H60Q56 257 56 280Q56 304 60 320H100Q96 337 96 360Q96 384 100 400H320Q324 384 324 360Q324 337 320 320H140Q144 304 144 280Q144 257 140 240H300Q304 224 304 200Q304 177 300 160H340Q344 144 344 120Q344 97 340 80Z"/><set attributeName="opacity" to="1" begin="1.930s" fill="freeze"/></g></g><g id="code1"><animate attributeName="opacity" values="1;0.3;1;0.3;1" dur="0.5s" begin="3.460s"/><set attributeName="opacity" to="0.42" begin="3.960s" fill="freeze"/><g opacity="0" fill="#000000" transform="translate(62.00,152.00) scale(0.01700,-0.01700)"><path transform="translate(0.0,0)" d="M315 240H265Q269 224 269 200Q269 177 265 160H215Q219 144 219 120Q219 97 215 80H165Q169 64 169 40Q169 17 165 0H85Q81 17 81 40Q81 64 85 80H135Q131 97 131 120Q131 144 135 160H185Q181 177 181 200Q181 224 185 240H235Q231 257 231 280Q231 304 235 320H185Q181 337 181 360Q181 384 185 400H135Q131 417 131 440Q131 464 135 480H85Q81 497 81 520Q81 544 85 560H165Q169 544 169 520Q169 497 165 480H215Q219 464 219 440Q219 417 215 400H265Q269 384 269 360Q269 337 265 320H315Q319 304 319 280Q319 257 315 240Z"/><set attributeName="opacity" to="1" begin="2.830s" fill="freeze"/></g><g opacity="0" fill="#000000" transform="translate(75.60,152.00) scale(0.01700,-0.01700)"><path transform="translate(0.0,0)" d="M324 40Q324 17 320 0H80Q76 17 76 40Q76 64 80 80H160Q156 97 156 120Q156 144 160 160Q156 177 156 200Q156 224 160 240Q156 257 156 280Q156 304 160 320Q156 337 156 360Q156 384 160 400Q156 417 156 440Q156 464 160 480H100Q96 497 96 520Q96 544 100 560H240Q244 544 244 520Q244 497 240 480Q244 464 244 440Q244 417 240 400Q244 384 244 360Q244 337 240 320Q244 304 244 280Q244 257 240 240Q244 224 244 200Q244 177 240 160Q244 144 244 120Q244 97 240 80H320Q324 64 324 40Z"/><set attributeName="opacity" to="1" begin="3.010s" fill="freeze"/></g><g opacity="0" fill="#000000" transform="translate(82.40,152.00) scale(0.01700,-0.01700)"><path transform="translate(0.0,0)" d="M360 160H330Q334 144 334 120Q334 97 330 80H280Q284 64 284 40Q284 17 280 0H120Q116 17 116 40Q116 64 120 80H70Q66 97 66 120Q66 144 70 160H40Q36 177 36 200Q36 224 40 240H70Q66 257 66 280Q66 304 70 320H120Q116 337 116 360Q116 384 120 400H280Q284 384 284 360Q284 337 280 320H330Q334 304 334 280Q334 257 330 240H360Q364 224 364 200Q364 177 360 160ZM280 160Q276 177 276 200Q276 224 280 240H250Q246 257 246 280Q246 304 250 320H150Q154 304 154 280Q154 257 150 240H120Q124 224 124 200Q124 177 120 160H150Q154 144 154 120Q154 97 150 80H250Q246 97 246 120Q246 144 250 160Z"/><set attributeName="opacity" to="1" begin="3.060s" fill="freeze"/></g><g opacity="0" fill="#000000" transform="translate(89.20,152.00) scale(0.01700,-0.01700)"><path transform="translate(0.0,0)" d="M364 40Q364 17 360 0H280Q276 17 276 40Q276 64 280 80H240Q236 97 236 120Q236 144 240 160H120Q124 144 124 120Q124 97 120 80H240Q244 64 244 40Q244 17 240 0H80Q76 17 76 40Q76 64 80 80H40Q36 97 36 120Q36 144 40 160H80Q76 177 76 200Q76 224 80 240H240Q236 257 236 280Q236 304 240 320H100Q96 337 96 360Q96 384 100 400H280Q284 384 284 360Q284 337 280 320H320Q324 304 324 280Q324 257 320 240Q324 224 324 200Q324 177 320 160Q324 144 324 120Q324 97 320 80H360Q364 64 364 40Z"/><set attributeName="opacity" to="1" begin="3.110s" fill="freeze"/></g><g opacity="0" fill="#000000" transform="translate(96.00,152.00) scale(0.01700,-0.01700)"><path transform="translate(0.0,0)" d="M364 440Q364 417 360 400Q364 384 364 360Q364 337 360 320Q364 304 364 280Q364 257 360 240Q364 224 364 200Q364 177 360 160Q364 144 364 120Q364 97 360 80Q364 64 364 40Q364 17 360 0H280Q276 17 276 40Q276 64 280 80H250Q246 97 246 120Q246 144 250 160H280Q276 177 276 200Q276 224 280 240H250Q246 257 246 280Q246 304 250 320H280Q276 337 276 360Q276 384 280 400Q276 417 276 440Q276 464 280 480Q276 497 276 520Q276 544 280 560H360Q364 544 364 520Q364 497 360 480Q364 464 364 440ZM230 320H130Q134 304 134 280Q134 257 130 240H100Q104 224 104 200Q104 177 100 160H130Q134 144 134 120Q134 97 130 80H230Q234 64 234 40Q234 17 230 0H120Q116 17 116 40Q116 64 120 80H70Q66 97 66 120Q66 144 70 160H40Q36 177 36 200Q36 224 40 240H70Q66 257 66 280Q66 304 70 320H120Q116 337 116 360Q116 384 120 400H230Q234 384 234 360Q234 337 230 320Z"/><set attributeName="opacity" to="1" begin="3.160s" fill="freeze"/></g><g opacity="0" fill="#000000" transform="translate(109.60,152.00) scale(0.01700,-0.01700)"><path transform="translate(0.0,0)" d="M364 440Q364 417 360 400Q364 384 364 360Q364 337 360 320Q364 304 364 280Q364 257 360 240Q364 224 364 200Q364 177 360 160Q364 144 364 120Q364 97 360 80Q364 64 364 40Q364 17 360 0H280Q276 17 276 40Q276 64 280 80H250Q246 97 246 120Q246 144 250 160H280Q276 177 276 200Q276 224 280 240H250Q246 257 246 280Q246 304 250 320H280Q276 337 276 360Q276 384 280 400Q276 417 276 440Q276 464 280 480Q276 497 276 520Q276 544 280 560H360Q364 544 364 520Q364 497 360 480Q364 464 364 440ZM230 320H130Q134 304 134 280Q134 257 130 240H100Q104 224 104 200Q104 177 100 160H130Q134 144 134 120Q134 97 130 80H230Q234 64 234 40Q234 17 230 0H120Q116 17 116 40Q116 64 120 80H70Q66 97 66 120Q66 144 70 160H40Q36 177 36 200Q36 224 40 240H70Q66 257 66 280Q66 304 70 320H120Q116 337 116 360Q116 384 120 400H230Q234 384 234 360Q234 337 230 320Z"/><set attributeName="opacity" to="1" begin="3.260s" fill="freeze"/></g><g opacity="0" fill="#000000" transform="translate(116.40,152.00) scale(0.01700,-0.01700)"><path transform="translate(0.0,0)" d="M360 240Q364 224 364 200Q364 177 360 160H150Q154 144 154 120Q154 97 150 80H320Q324 64 324 40Q324 17 320 0H120Q116 17 116 40Q116 64 120 80H70Q66 97 66 120Q66 144 70 160H40Q36 177 36 200Q36 224 40 240H70Q66 257 66 280Q66 304 70 320H120Q116 337 116 360Q116 384 120 400H320Q324 384 324 360Q324 337 320 320H360Q364 304 364 280Q364 257 360 240ZM276 280Q276 304 280 320H150Q154 304 154 280Q154 257 150 240H280Q276 257 276 280Z"/><set attributeName="opacity" to="1" begin="3.310s" fill="freeze"/></g><g opacity="0" fill="#000000" transform="translate(123.20,152.00) scale(0.01700,-0.01700)"><path transform="translate(0.0,0)" d="M360 320H330Q334 304 334 280Q334 257 330 240H300Q304 224 304 200Q304 177 300 160H280Q284 144 284 120Q284 97 280 80H240Q244 64 244 40Q244 17 240 0H160Q156 17 156 40Q156 64 160 80H120Q116 97 116 120Q116 144 120 160H100Q96 177 96 200Q96 224 100 240H70Q66 257 66 280Q66 304 70 320H40Q36 337 36 360Q36 384 40 400H120Q124 384 124 360Q124 337 120 320H150Q154 304 154 280Q154 257 150 240H180Q184 224 184 200Q184 177 180 160H220Q216 177 216 200Q216 224 220 240H250Q246 257 246 280Q246 304 250 320H280Q276 337 276 360Q276 384 280 400H360Q364 384 364 360Q364 337 360 320Z"/><set attributeName="opacity" to="1" begin="3.360s" fill="freeze"/></g></g><g id="code2"><animate attributeName="opacity" values="1;0.3;1;0.3;1" dur="0.5s" begin="4.890s"/><g opacity="0" fill="#000000" transform="translate(62.00,170.00) scale(0.01700,-0.01700)"><path transform="translate(0.0,0)" d="M315 240H265Q269 224 269 200Q269 177 265 160H215Q219 144 219 120Q219 97 215 80H165Q169 64 169 40Q169 17 165 0H85Q81 17 81 40Q81 64 85 80H135Q131 97 131 120Q131 144 135 160H185Q181 177 181 200Q181 224 185 240H235Q231 257 231 280Q231 304 235 320H185Q181 337 181 360Q181 384 185 400H135Q131 417 131 440Q131 464 135 480H85Q81 497 81 520Q81 544 85 560H165Q169 544 169 520Q169 497 165 480H215Q219 464 219 440Q219 417 215 400H265Q269 384 269 360Q269 337 265 320H315Q319 304 319 280Q319 257 315 240Z"/><set attributeName="opacity" to="1" begin="4.260s" fill="freeze"/></g><g opacity="0" fill="#000000" transform="translate(75.60,170.00) scale(0.01700,-0.01700)"><path transform="translate(0.0,0)" d="M364 360Q364 337 360 320Q364 304 364 280Q364 257 360 240Q364 224 364 200Q364 177 360 160H200Q196 177 196 200Q196 224 200 240H170Q166 257 166 280Q166 304 170 320Q166 337 166 360Q166 384 170 400H200Q196 417 196 440Q196 464 200 480H240Q236 497 236 520Q236 544 240 560H140Q144 544 144 520Q144 497 140 480H100Q104 464 104 440Q104 417 100 400Q104 384 104 360Q104 337 100 320Q104 304 104 280Q104 257 100 240Q104 224 104 200Q104 177 100 160H140Q144 144 144 120Q144 97 140 80H320Q324 64 324 40Q324 17 320 0H120Q116 17 116 40Q116 64 120 80H80Q76 97 76 120Q76 144 80 160H40Q36 177 36 200Q36 224 40 240Q36 257 36 280Q36 304 40 320Q36 337 36 360Q36 384 40 400Q36 417 36 440Q36 464 40 480H80Q76 497 76 520Q76 544 80 560H120Q116 577 116 600Q116 624 120 640H280Q284 624 284 600Q284 577 280 560H320Q324 544 324 520Q324 497 320 480H360Q364 464 364 440Q364 417 360 400Q364 384 364 360ZM296 280Q296 304 300 320Q296 337 296 360Q296 384 300 400H230Q234 384 234 360Q234 337 230 320Q234 304 234 280Q234 257 230 240H300Q296 257 296 280Z"/><set attributeName="opacity" to="1" begin="4.440s" fill="freeze"/></g><g opacity="0" fill="#000000" transform="translate(82.40,170.00) scale(0.01700,-0.01700)"><path transform="translate(0.0,0)" d="M364 440Q364 417 360 400Q364 384 364 360Q364 337 360 320Q364 304 364 280Q364 257 360 240Q364 224 364 200Q364 177 360 160Q364 144 364 120Q364 97 360 80Q364 64 364 40Q364 17 360 0H280Q276 17 276 40Q276 64 280 80Q276 97 276 120Q276 144 280 160Q276 177 276 200Q276 224 280 240Q276 257 276 280Q276 304 280 320Q276 337 276 360Q276 384 280 400H250Q254 384 254 360Q254 337 250 320Q254 304 254 280Q254 257 250 240H230Q234 224 234 200Q234 177 230 160Q234 144 234 120Q234 97 230 80H170Q166 97 166 120Q166 144 170 160Q166 177 166 200Q166 224 170 240H150Q146 257 146 280Q146 304 150 320Q146 337 146 360Q146 384 150 400H120Q124 384 124 360Q124 337 120 320Q124 304 124 280Q124 257 120 240Q124 224 124 200Q124 177 120 160Q124 144 124 120Q124 97 120 80Q124 64 124 40Q124 17 120 0H40Q36 17 36 40Q36 64 40 80Q36 97 36 120Q36 144 40 160Q36 177 36 200Q36 224 40 240Q36 257 36 280Q36 304 40 320Q36 337 36 360Q36 384 40 400Q36 417 36 440Q36 464 40 480Q36 497 36 520Q36 544 40 560H140Q144 544 144 520Q144 497 140 480H170Q174 464 174 440Q174 417 170 400H185Q189 384 189 360Q189 337 185 320H215Q211 337 211 360Q211 384 215 400H230Q226 417 226 440Q226 464 230 480H260Q256 497 256 520Q256 544 260 560H360Q364 544 364 520Q364 497 360 480Q364 464 364 440Z"/><set attributeName="opacity" to="1" begin="4.490s" fill="freeze"/></g><g opacity="0" fill="#000000" transform="translate(89.20,170.00) scale(0.01700,-0.01700)"><path transform="translate(0.0,0)" d="M360 160Q364 144 364 120Q364 97 360 80H320Q324 64 324 40Q324 17 320 0H120Q116 17 116 40Q116 64 120 80H80Q76 97 76 120Q76 144 80 160H40Q36 177 36 200Q36 224 40 240H80Q76 257 76 280Q76 304 80 320H120Q116 337 116 360Q116 384 120 400H320Q324 384 324 360Q324 337 320 320H360Q364 304 364 280Q364 257 360 240H280Q276 257 276 280Q276 304 280 320H160Q164 304 164 280Q164 257 160 240H120Q124 224 124 200Q124 177 120 160H160Q164 144 164 120Q164 97 160 80H280Q276 97 276 120Q276 144 280 160Z"/><set attributeName="opacity" to="1" begin="4.540s" fill="freeze"/></g><g opacity="0" fill="#000000" transform="translate(96.00,170.00) scale(0.01700,-0.01700)"><path transform="translate(0.0,0)" d="M364 440Q364 417 360 400Q364 384 364 360Q364 337 360 320H330Q334 304 334 280Q334 257 330 240H300Q304 224 304 200Q304 177 300 160H280Q284 144 284 120Q284 97 280 80H240Q244 64 244 40Q244 17 240 0H160Q156 17 156 40Q156 64 160 80H120Q116 97 116 120Q116 144 120 160H100Q96 177 96 200Q96 224 100 240H70Q66 257 66 280Q66 304 70 320H40Q36 337 36 360Q36 384 40 400Q36 417 36 440Q36 464 40 480Q36 497 36 520Q36 544 40 560H120Q124 544 124 520Q124 497 120 480Q124 464 124 440Q124 417 120 400Q124 384 124 360Q124 337 120 320H150Q154 304 154 280Q154 257 150 240H180Q184 224 184 200Q184 177 180 160H220Q216 177 216 200Q216 224 220 240H250Q246 257 246 280Q246 304 250 320H280Q276 337 276 360Q276 384 280 400Q276 417 276 440Q276 464 280 480Q276 497 276 520Q276 544 280 560H360Q364 544 364 520Q364 497 360 480Q364 464 364 440Z"/><set attributeName="opacity" to="1" begin="4.590s" fill="freeze"/></g><g opacity="0" fill="#000000" transform="translate(102.80,170.00) scale(0.01700,-0.01700)"><path transform="translate(0.0,0)" d="M364 40Q364 17 360 0H280Q276 17 276 40Q276 64 280 80H240Q236 97 236 120Q236 144 240 160H120Q124 144 124 120Q124 97 120 80H240Q244 64 244 40Q244 17 240 0H80Q76 17 76 40Q76 64 80 80H40Q36 97 36 120Q36 144 40 160H80Q76 177 76 200Q76 224 80 240H240Q236 257 236 280Q236 304 240 320H100Q96 337 96 360Q96 384 100 400H280Q284 384 284 360Q284 337 280 320H320Q324 304 324 280Q324 257 320 240Q324 224 324 200Q324 177 320 160Q324 144 324 120Q324 97 320 80H360Q364 64 364 40Z"/><set attributeName="opacity" to="1" begin="4.640s" fill="freeze"/></g><g opacity="0" fill="#000000" transform="translate(109.60,170.00) scale(0.01700,-0.01700)"><path transform="translate(0.0,0)" d="M364 280Q364 257 360 240H280Q276 257 276 280Q276 304 280 320H210Q214 304 214 280Q214 257 210 240H180Q184 224 184 200Q184 177 180 160Q184 144 184 120Q184 97 180 80H240Q244 64 244 40Q244 17 240 0H40Q36 17 36 40Q36 64 40 80H100Q96 97 96 120Q96 144 100 160Q96 177 96 200Q96 224 100 240Q96 257 96 280Q96 304 100 320H40Q36 337 36 360Q36 384 40 400H140Q144 384 144 360Q144 337 140 320H180Q176 337 176 360Q176 384 180 400H330Q334 384 334 360Q334 337 330 320H360Q364 304 364 280Z"/><set attributeName="opacity" to="1" begin="4.690s" fill="freeze"/></g><g opacity="0" fill="#000000" transform="translate(116.40,170.00) scale(0.01700,-0.01700)"><path transform="translate(0.0,0)" d="M364 440Q364 417 360 400Q364 384 364 360Q364 337 360 320Q364 304 364 280Q364 257 360 240Q364 224 364 200Q364 177 360 160Q364 144 364 120Q364 97 360 80Q364 64 364 40Q364 17 360 0H280Q276 17 276 40Q276 64 280 80Q276 97 276 120Q276 144 280 160Q276 177 276 200Q276 224 280 240H120Q124 224 124 200Q124 177 120 160Q124 144 124 120Q124 97 120 80Q124 64 124 40Q124 17 120 0H40Q36 17 36 40Q36 64 40 80Q36 97 36 120Q36 144 40 160Q36 177 36 200Q36 224 40 240Q36 257 36 280Q36 304 40 320Q36 337 36 360Q36 384 40 400Q36 417 36 440Q36 464 40 480Q36 497 36 520Q36 544 40 560H120Q124 544 124 520Q124 497 120 480Q124 464 124 440Q124 417 120 400Q124 384 124 360Q124 337 120 320H280Q276 337 276 360Q276 384 280 400Q276 417 276 440Q276 464 280 480Q276 497 276 520Q276 544 280 560H360Q364 544 364 520Q364 497 360 480Q364 464 364 440Z"/><set attributeName="opacity" to="1" begin="4.740s" fill="freeze"/></g><g opacity="0" fill="#000000" transform="translate(123.20,170.00) scale(0.01700,-0.01700)"><path transform="translate(0.0,0)" d="M364 280Q364 257 360 240Q364 224 364 200Q364 177 360 160H330Q334 144 334 120Q334 97 330 80H280Q284 64 284 40Q284 17 280 0H320Q324 -16 324 -40Q324 -63 320 -80H360Q364 -96 364 -120Q364 -143 360 -160H280Q276 -143 276 -120Q276 -96 280 -80H240Q236 -63 236 -40Q236 -16 240 0H120Q116 17 116 40Q116 64 120 80H70Q66 97 66 120Q66 144 70 160H40Q36 177 36 200Q36 224 40 240Q36 257 36 280Q36 304 40 320Q36 337 36 360Q36 384 40 400H70Q66 417 66 440Q66 464 70 480H120Q116 497 116 520Q116 544 120 560H280Q284 544 284 520Q284 497 280 480H330Q334 464 334 440Q334 417 330 400H360Q364 384 364 360Q364 337 360 320Q364 304 364 280ZM276 200Q276 224 280 240Q276 257 276 280Q276 304 280 320Q276 337 276 360Q276 384 280 400H250Q246 417 246 440Q246 464 250 480H150Q154 464 154 440Q154 417 150 400H120Q124 384 124 360Q124 337 120 320Q124 304 124 280Q124 257 120 240Q124 224 124 200Q124 177 120 160H150Q154 144 154 120Q154 97 150 80H250Q246 97 246 120Q246 144 250 160H280Q276 177 276 200Z"/><set attributeName="opacity" to="1" begin="4.790s" fill="freeze"/></g></g><g opacity="0"><g fill="#000000" transform="translate(69.00,242.00) scale(0.07031,-0.07031)"><path transform="translate(0.0,0)" d="M128 128V256H256V128ZM0 256V768H128V256ZM256 0V128H384V256H512V768H768V256H640V128H512V0Z"/></g><g fill="#000000" transform="translate(68.00,241.00) scale(0.07031,-0.07031)"><path transform="translate(0.0,0)" d="M128 128V256H256V128ZM0 256V768H128V256ZM256 0V128H384V256H512V768H768V256H640V128H512V0Z"/></g><g fill="#000000" transform="translate(67.00,240.00) scale(0.07031,-0.07031)"><path transform="translate(0.0,0)" d="M128 128V256H256V128ZM0 256V768H128V256ZM256 0V128H384V256H512V768H768V256H640V128H512V0Z"/></g><g fill="#000000" transform="translate(66.00,239.00) scale(0.07031,-0.07031)"><path transform="translate(0.0,0)" d="M128 128V256H256V128ZM0 256V768H128V256ZM256 0V128H384V256H512V768H768V256H640V128H512V0Z"/></g><g fill="#000000" transform="translate(65.00,238.00) scale(0.07031,-0.07031)"><path transform="translate(0.0,0)" d="M128 128V256H256V128ZM0 256V768H128V256ZM256 0V128H384V256H512V768H768V256H640V128H512V0Z"/></g><g fill="#000000" transform="translate(64.00,237.00) scale(0.07031,-0.07031)"><path transform="translate(0.0,0)" d="M128 128V256H256V128ZM0 256V768H128V256ZM256 0V128H384V256H512V768H768V256H640V128H512V0Z"/></g><g fill="#803F64" transform="translate(62.00,235.00) scale(0.07031,-0.07031)"><path transform="translate(0.0,0)" d="M128 128V256H256V128ZM0 256V768H128V256ZM256 0V128H384V256H512V768H768V256H640V128H512V0Z"/></g><set attributeName="opacity" to="1" begin="8.390s" fill="freeze"/></g><g opacity="0"><g fill="#000000" transform="translate(141.00,242.00) scale(0.07031,-0.07031)"><path transform="translate(0.0,0)" d="M0 0V640H128V384H384V640H128V768H640V640H768V0H384V256H128V0Z"/></g><g fill="#000000" transform="translate(140.00,241.00) scale(0.07031,-0.07031)"><path transform="translate(0.0,0)" d="M0 0V640H128V384H384V640H128V768H640V640H768V0H384V256H128V0Z"/></g><g fill="#000000" transform="translate(139.00,240.00) scale(0.07031,-0.07031)"><path transform="translate(0.0,0)" d="M0 0V640H128V384H384V640H128V768H640V640H768V0H384V256H128V0Z"/></g><g fill="#000000" transform="translate(138.00,239.00) scale(0.07031,-0.07031)"><path transform="translate(0.0,0)" d="M0 0V640H128V384H384V640H128V768H640V640H768V0H384V256H128V0Z"/></g><g fill="#000000" transform="translate(137.00,238.00) scale(0.07031,-0.07031)"><path transform="translate(0.0,0)" d="M0 0V640H128V384H384V640H128V768H640V640H768V0H384V256H128V0Z"/></g><g fill="#000000" transform="translate(136.00,237.00) scale(0.07031,-0.07031)"><path transform="translate(0.0,0)" d="M0 0V640H128V384H384V640H128V768H640V640H768V0H384V256H128V0Z"/></g><g fill="#803F64" transform="translate(134.00,235.00) scale(0.07031,-0.07031)"><path transform="translate(0.0,0)" d="M0 0V640H128V384H384V640H128V768H640V640H768V0H384V256H128V0Z"/></g><set attributeName="opacity" to="1" begin="8.810s" fill="freeze"/></g><g opacity="0"><g fill="#000000" transform="translate(213.00,242.00) scale(0.07031,-0.07031)"><path transform="translate(0.0,0)" d="M512 0V128H768V0ZM512 384V640H256V384ZM0 0V768H640V640H768V384H640V256H512V128H384V256H256V0Z"/></g><g fill="#000000" transform="translate(212.00,241.00) scale(0.07031,-0.07031)"><path transform="translate(0.0,0)" d="M512 0V128H768V0ZM512 384V640H256V384ZM0 0V768H640V640H768V384H640V256H512V128H384V256H256V0Z"/></g><g fill="#000000" transform="translate(211.00,240.00) scale(0.07031,-0.07031)"><path transform="translate(0.0,0)" d="M512 0V128H768V0ZM512 384V640H256V384ZM0 0V768H640V640H768V384H640V256H512V128H384V256H256V0Z"/></g><g fill="#000000" transform="translate(210.00,239.00) scale(0.07031,-0.07031)"><path transform="translate(0.0,0)" d="M512 0V128H768V0ZM512 384V640H256V384ZM0 0V768H640V640H768V384H640V256H512V128H384V256H256V0Z"/></g><g fill="#000000" transform="translate(209.00,238.00) scale(0.07031,-0.07031)"><path transform="translate(0.0,0)" d="M512 0V128H768V0ZM512 384V640H256V384ZM0 0V768H640V640H768V384H640V256H512V128H384V256H256V0Z"/></g><g fill="#000000" transform="translate(208.00,237.00) scale(0.07031,-0.07031)"><path transform="translate(0.0,0)" d="M512 0V128H768V0ZM512 384V640H256V384ZM0 0V768H640V640H768V384H640V256H512V128H384V256H256V0Z"/></g><g fill="#803F64" transform="translate(206.00,235.00) scale(0.07031,-0.07031)"><path transform="translate(0.0,0)" d="M512 0V128H768V0ZM512 384V640H256V384ZM0 0V768H640V640H768V384H640V256H512V128H384V256H256V0Z"/></g><set attributeName="opacity" to="1" begin="9.230s" fill="freeze"/></g><g opacity="0"><g fill="#000000" transform="translate(285.00,242.00) scale(0.07031,-0.07031)"><path transform="translate(0.0,0)" d="M512 128V640H256V128ZM128 0V128H0V640H128V768H640V640H768V128H640V0Z"/></g><g fill="#000000" transform="translate(284.00,241.00) scale(0.07031,-0.07031)"><path transform="translate(0.0,0)" d="M512 128V640H256V128ZM128 0V128H0V640H128V768H640V640H768V128H640V0Z"/></g><g fill="#000000" transform="translate(283.00,240.00) scale(0.07031,-0.07031)"><path transform="translate(0.0,0)" d="M512 128V640H256V128ZM128 0V128H0V640H128V768H640V640H768V128H640V0Z"/></g><g fill="#000000" transform="translate(282.00,239.00) scale(0.07031,-0.07031)"><path transform="translate(0.0,0)" d="M512 128V640H256V128ZM128 0V128H0V640H128V768H640V640H768V128H640V0Z"/></g><g fill="#000000" transform="translate(281.00,238.00) scale(0.07031,-0.07031)"><path transform="translate(0.0,0)" d="M512 128V640H256V128ZM128 0V128H0V640H128V768H640V640H768V128H640V0Z"/></g><g fill="#000000" transform="translate(280.00,237.00) scale(0.07031,-0.07031)"><path transform="translate(0.0,0)" d="M512 128V640H256V128ZM128 0V128H0V640H128V768H640V640H768V128H640V0Z"/></g><g fill="#803F64" transform="translate(278.00,235.00) scale(0.07031,-0.07031)"><path transform="translate(0.0,0)" d="M512 128V640H256V128ZM128 0V128H0V640H128V768H640V640H768V128H640V0Z"/></g><set attributeName="opacity" to="1" begin="9.650s" fill="freeze"/></g><g opacity="0"><g fill="#000000" transform="translate(357.00,242.00) scale(0.07031,-0.07031)"><path transform="translate(0.0,0)" d="M512 128V640H256V128ZM128 0V128H0V640H128V768H640V640H768V128H640V0Z"/></g><g fill="#000000" transform="translate(356.00,241.00) scale(0.07031,-0.07031)"><path transform="translate(0.0,0)" d="M512 128V640H256V128ZM128 0V128H0V640H128V768H640V640H768V128H640V0Z"/></g><g fill="#000000" transform="translate(355.00,240.00) scale(0.07031,-0.07031)"><path transform="translate(0.0,0)" d="M512 128V640H256V128ZM128 0V128H0V640H128V768H640V640H768V128H640V0Z"/></g><g fill="#000000" transform="translate(354.00,239.00) scale(0.07031,-0.07031)"><path transform="translate(0.0,0)" d="M512 128V640H256V128ZM128 0V128H0V640H128V768H640V640H768V128H640V0Z"/></g><g fill="#000000" transform="translate(353.00,238.00) scale(0.07031,-0.07031)"><path transform="translate(0.0,0)" d="M512 128V640H256V128ZM128 0V128H0V640H128V768H640V640H768V128H640V0Z"/></g><g fill="#000000" transform="translate(352.00,237.00) scale(0.07031,-0.07031)"><path transform="translate(0.0,0)" d="M512 128V640H256V128ZM128 0V128H0V640H128V768H640V640H768V128H640V0Z"/></g><g fill="#803F64" transform="translate(350.00,235.00) scale(0.07031,-0.07031)"><path transform="translate(0.0,0)" d="M512 128V640H256V128ZM128 0V128H0V640H128V768H640V640H768V128H640V0Z"/></g><set attributeName="opacity" to="1" begin="10.070s" fill="freeze"/></g><g opacity="0"><g fill="#000000" transform="translate(429.00,242.00) scale(0.07031,-0.07031)"><path transform="translate(0.0,0)" d="M0 0V768H128V640H256V512H384V384H512V768H768V0H512V128H384V256H256V384H128V0Z"/></g><g fill="#000000" transform="translate(428.00,241.00) scale(0.07031,-0.07031)"><path transform="translate(0.0,0)" d="M0 0V768H128V640H256V512H384V384H512V768H768V0H512V128H384V256H256V384H128V0Z"/></g><g fill="#000000" transform="translate(427.00,240.00) scale(0.07031,-0.07031)"><path transform="translate(0.0,0)" d="M0 0V768H128V640H256V512H384V384H512V768H768V0H512V128H384V256H256V384H128V0Z"/></g><g fill="#000000" transform="translate(426.00,239.00) scale(0.07031,-0.07031)"><path transform="translate(0.0,0)" d="M0 0V768H128V640H256V512H384V384H512V768H768V0H512V128H384V256H256V384H128V0Z"/></g><g fill="#000000" transform="translate(425.00,238.00) scale(0.07031,-0.07031)"><path transform="translate(0.0,0)" d="M0 0V768H128V640H256V512H384V384H512V768H768V0H512V128H384V256H256V384H128V0Z"/></g><g fill="#000000" transform="translate(424.00,237.00) scale(0.07031,-0.07031)"><path transform="translate(0.0,0)" d="M0 0V768H128V640H256V512H384V384H512V768H768V0H512V128H384V256H256V384H128V0Z"/></g><g fill="#803F64" transform="translate(422.00,235.00) scale(0.07031,-0.07031)"><path transform="translate(0.0,0)" d="M0 0V768H128V640H256V512H384V384H512V768H768V0H512V128H384V256H256V384H128V0Z"/></g><set attributeName="opacity" to="1" begin="10.490s" fill="freeze"/></g><g opacity="0"><set attributeName="opacity" to="1" begin="5.990s" fill="freeze"/><rect id="cursor_sh"><animate attributeName="opacity" values="1;1;0;0;1" keyTimes="0;0.42;0.5;0.92;1" dur="0.85s" begin="0.060s" repeatCount="indefinite"/><set attributeName="fill" to="#000000" begin="0s" fill="freeze"/><set attributeName="width" to="8.4" begin="0.000s" fill="freeze"/><set attributeName="height" to="14.0" begin="0.000s" fill="freeze"/><set attributeName="x" to="373.0" begin="0.000s" fill="freeze"/><set attributeName="y" to="76.9" begin="0.000s" fill="freeze"/><set attributeName="height" to="17.0" begin="1.400s" fill="freeze"/><set attributeName="width" to="10.2" begin="1.400s" fill="freeze"/><set attributeName="y" to="123.0" begin="1.400s" fill="freeze"/><set attributeName="x" to="81.6" begin="1.400s" fill="freeze"/><set attributeName="x" to="88.4" begin="1.580s" fill="freeze"/><set attributeName="x" to="95.2" begin="1.630s" fill="freeze"/><set attributeName="x" to="102.0" begin="1.680s" fill="freeze"/><set attributeName="x" to="108.8" begin="1.730s" fill="freeze"/><set attributeName="x" to="115.6" begin="1.780s" fill="freeze"/><set attributeName="x" to="122.4" begin="1.830s" fill="freeze"/><set attributeName="x" to="129.2" begin="1.880s" fill="freeze"/><set attributeName="x" to="136.0" begin="1.930s" fill="freeze"/><set attributeName="height" to="17.0" begin="2.830s" fill="freeze"/><set attributeName="width" to="10.2" begin="2.830s" fill="freeze"/><set attributeName="y" to="141.0" begin="2.830s" fill="freeze"/><set attributeName="x" to="81.6" begin="2.830s" fill="freeze"/><set attributeName="x" to="88.4" begin="3.010s" fill="freeze"/><set attributeName="x" to="95.2" begin="3.060s" fill="freeze"/><set attributeName="x" to="102.0" begin="3.110s" fill="freeze"/><set attributeName="x" to="108.8" begin="3.160s" fill="freeze"/><set attributeName="x" to="115.6" begin="3.210s" fill="freeze"/><set attributeName="x" to="122.4" begin="3.260s" fill="freeze"/><set attributeName="x" to="129.2" begin="3.310s" fill="freeze"/><set attributeName="x" to="136.0" begin="3.360s" fill="freeze"/><set attributeName="height" to="17.0" begin="4.260s" fill="freeze"/><set attributeName="width" to="10.2" begin="4.260s" fill="freeze"/><set attributeName="y" to="159.0" begin="4.260s" fill="freeze"/><set attributeName="x" to="81.6" begin="4.260s" fill="freeze"/><set attributeName="x" to="88.4" begin="4.440s" fill="freeze"/><set attributeName="x" to="95.2" begin="4.490s" fill="freeze"/><set attributeName="x" to="102.0" begin="4.540s" fill="freeze"/><set attributeName="x" to="108.8" begin="4.590s" fill="freeze"/><set attributeName="x" to="115.6" begin="4.640s" fill="freeze"/><set attributeName="x" to="122.4" begin="4.690s" fill="freeze"/><set attributeName="x" to="129.2" begin="4.740s" fill="freeze"/><set attributeName="x" to="136.0" begin="4.790s" fill="freeze"/><set attributeName="height" to="72.0" begin="5.990s" fill="freeze"/><set attributeName="width" to="30.2" begin="5.990s" fill="freeze"/><set attributeName="y" to="175.0" begin="5.990s" fill="freeze"/><set attributeName="x" to="72.0" begin="5.990s" fill="freeze"/><set attributeName="x" to="144.0" begin="8.390s" fill="freeze"/><set attributeName="x" to="216.0" begin="8.810s" fill="freeze"/><set attributeName="x" to="288.0" begin="9.230s" fill="freeze"/><set attributeName="x" to="360.0" begin="9.650s" fill="freeze"/><set attributeName="x" to="432.0" begin="10.070s" fill="freeze"/><set attributeName="x" to="504.0" begin="10.490s" fill="freeze"/></rect></g><rect id="cursor"><animate attributeName="opacity" values="1;1;0;0;1" keyTimes="0;0.42;0.5;0.92;1" dur="0.85s" begin="0s" repeatCount="indefinite"/><set attributeName="width" to="8.4" begin="0.000s" fill="freeze"/><set attributeName="height" to="14.0" begin="0.000s" fill="freeze"/><set attributeName="x" to="369.0" begin="0.000s" fill="freeze"/><set attributeName="y" to="72.9" begin="0.000s" fill="freeze"/><set attributeName="fill" to="#000000" begin="0.000s" fill="freeze"/><set attributeName="height" to="17.0" begin="1.400s" fill="freeze"/><set attributeName="width" to="10.2" begin="1.400s" fill="freeze"/><set attributeName="y" to="119.0" begin="1.400s" fill="freeze"/><set attributeName="fill" to="#000000" begin="1.400s" fill="freeze"/><set attributeName="x" to="77.6" begin="1.400s" fill="freeze"/><set attributeName="x" to="84.4" begin="1.580s" fill="freeze"/><set attributeName="x" to="91.2" begin="1.630s" fill="freeze"/><set attributeName="x" to="98.0" begin="1.680s" fill="freeze"/><set attributeName="x" to="104.8" begin="1.730s" fill="freeze"/><set attributeName="x" to="111.6" begin="1.780s" fill="freeze"/><set attributeName="x" to="118.4" begin="1.830s" fill="freeze"/><set attributeName="x" to="125.2" begin="1.880s" fill="freeze"/><set attributeName="x" to="132.0" begin="1.930s" fill="freeze"/><set attributeName="height" to="17.0" begin="2.830s" fill="freeze"/><set attributeName="width" to="10.2" begin="2.830s" fill="freeze"/><set attributeName="y" to="137.0" begin="2.830s" fill="freeze"/><set attributeName="fill" to="#000000" begin="2.830s" fill="freeze"/><set attributeName="x" to="77.6" begin="2.830s" fill="freeze"/><set attributeName="x" to="84.4" begin="3.010s" fill="freeze"/><set attributeName="x" to="91.2" begin="3.060s" fill="freeze"/><set attributeName="x" to="98.0" begin="3.110s" fill="freeze"/><set attributeName="x" to="104.8" begin="3.160s" fill="freeze"/><set attributeName="x" to="111.6" begin="3.210s" fill="freeze"/><set attributeName="x" to="118.4" begin="3.260s" fill="freeze"/><set attributeName="x" to="125.2" begin="3.310s" fill="freeze"/><set attributeName="x" to="132.0" begin="3.360s" fill="freeze"/><set attributeName="height" to="17.0" begin="4.260s" fill="freeze"/><set attributeName="width" to="10.2" begin="4.260s" fill="freeze"/><set attributeName="y" to="155.0" begin="4.260s" fill="freeze"/><set attributeName="fill" to="#000000" begin="4.260s" fill="freeze"/><set attributeName="x" to="77.6" begin="4.260s" fill="freeze"/><set attributeName="x" to="84.4" begin="4.440s" fill="freeze"/><set attributeName="x" to="91.2" begin="4.490s" fill="freeze"/><set attributeName="x" to="98.0" begin="4.540s" fill="freeze"/><set attributeName="x" to="104.8" begin="4.590s" fill="freeze"/><set attributeName="x" to="111.6" begin="4.640s" fill="freeze"/><set attributeName="x" to="118.4" begin="4.690s" fill="freeze"/><set attributeName="x" to="125.2" begin="4.740s" fill="freeze"/><set attributeName="x" to="132.0" begin="4.790s" fill="freeze"/><set attributeName="height" to="72.0" begin="5.990s" fill="freeze"/><set attributeName="width" to="30.2" begin="5.990s" fill="freeze"/><set attributeName="y" to="171.0" begin="5.990s" fill="freeze"/><set attributeName="fill" to="#803F64" begin="5.990s" fill="freeze"/><set attributeName="x" to="68.0" begin="5.990s" fill="freeze"/><set attributeName="x" to="140.0" begin="8.390s" fill="freeze"/><set attributeName="x" to="212.0" begin="8.810s" fill="freeze"/><set attributeName="x" to="284.0" begin="9.230s" fill="freeze"/><set attributeName="x" to="356.0" begin="9.650s" fill="freeze"/><set attributeName="x" to="428.0" begin="10.070s" fill="freeze"/><set attributeName="x" to="500.0" begin="10.490s" fill="freeze"/></rect><clipPath id="chipclip"><rect x="48" y="48" width="784" height="234"/></clipPath><g clip-path="url(#chipclip)"><g transform="translate(287.0,0)"><animateTransform attributeName="transform" type="translate" calcMode="discrete" values="287.0,0;263.1,0;239.2,0;215.2,0;191.3,0;167.4,0;143.5,0;119.6,0;95.7,0;71.8,0;47.8,0;23.9,0;0.0,0" keyTimes="0.0000;0.0833;0.1667;0.2500;0.3333;0.4167;0.5000;0.5833;0.6667;0.7500;0.8333;0.9167;1.0000" begin="11.46s" dur="0.6s" fill="freeze"/><rect x="604.0" y="182.0" width="84.0" height="22" fill="#2A0608"/><rect x="688.0" y="182.0" width="124.0" height="22" fill="#D31E25"/><g fill="#FFFFFF" transform="translate(611.00,198.00) scale(0.00977,-0.00977)"><path transform="translate(0.0,0)" d="M256 0V384H128V512H0V768H256V512H512V768H768V512H640V384H512V0Z"/><path transform="translate(1024.0,0)" d="M512 128V640H256V128ZM128 0V128H0V640H128V768H640V640H768V128H640V0Z"/><path transform="translate(2048.0,0)" d="M0 128V768H128V128ZM128 0V128H384V256H512V768H768V128H640V0Z"/><path transform="translate(3072.0,0)" d="M256 0V640H0V768H768V640H512V0Z"/><path transform="translate(4096.0,0)" d="M0 128V768H128V128ZM128 0V128H384V256H512V768H768V128H640V0Z"/><path transform="translate(5120.0,0)" d="M512 128V384H256V128ZM512 512V640H256V512ZM0 0V768H640V640H768V512H640V384H768V128H640V0Z"/><path transform="translate(6144.0,0)" d="M0 0V768H768V640H256V512H640V384H256V128H768V0Z"/></g><g fill="#FFFFFF" transform="translate(695.00,198.00) scale(0.00977,-0.00977)"><path transform="translate(0.0,0)" d="M128 128V256H256V128ZM0 256V768H128V256ZM256 0V128H384V256H512V768H768V256H640V128H512V0Z"/></g><g fill="#FFFFFF" transform="translate(705.00,198.00) scale(0.00977,-0.00977)"><path transform="translate(0.0,0)" d="M0 0V640H128V384H384V640H128V768H640V640H768V0H384V256H128V0Z"/></g><g fill="#FFFFFF" transform="translate(715.00,198.00) scale(0.00977,-0.00977)"><path transform="translate(0.0,0)" d="M512 0V128H768V0ZM512 384V640H256V384ZM0 0V768H640V640H768V384H640V256H512V128H384V256H256V0Z"/></g><g fill="#FFFFFF" transform="translate(725.00,198.00) scale(0.00977,-0.00977)"><path transform="translate(0.0,0)" d="M512 128V640H256V128ZM128 0V128H0V640H128V768H640V640H768V128H640V0Z"/></g><g fill="#FFFFFF" transform="translate(735.00,198.00) scale(0.00977,-0.00977)"><path transform="translate(0.0,0)" d="M512 128V640H256V128ZM128 0V128H0V640H128V768H640V640H768V128H640V0Z"/></g><g fill="#FFFFFF" transform="translate(745.00,198.00) scale(0.00977,-0.00977)"><path transform="translate(0.0,0)" d="M0 0V768H128V640H256V512H384V384H512V768H768V0H512V128H384V256H256V384H128V0Z"/></g><g fill="#FFFFFF" transform="translate(755.00,198.00) scale(0.00977,-0.00977)"><path transform="translate(0.0,0)" d="M0 128V256H128V128ZM128 0V128H384V384H128V512H0V640H128V768H640V640H256V512H640V384H768V128H640V0Z"/></g><g fill="#FFFFFF" transform="translate(765.00,198.00) scale(0.00977,-0.00977)"><path transform="translate(0.0,0)" d="M0 0V768H128V640H256V512H384V384H512V768H768V0H512V128H384V256H256V384H128V0Z"/></g><g fill="#FFFFFF" transform="translate(775.00,198.00) scale(0.00977,-0.00977)"><path transform="translate(0.0,0)" d="M512 128V640H256V128ZM128 0V128H0V640H128V768H640V640H768V128H640V0Z"/></g><g fill="#FFFFFF" transform="translate(785.00,198.00) scale(0.00977,-0.00977)"><path transform="translate(0.0,0)" d="M512 128V640H256V128ZM128 0V128H0V640H128V768H640V640H768V128H640V0Z"/></g><g fill="#FFFFFF" transform="translate(795.00,198.00) scale(0.00977,-0.00977)"><path transform="translate(0.0,0)" d="M0 0V768H256V512H384V640H512V768H768V640H640V512H512V256H640V128H768V0H512V128H384V256H256V0Z"/></g></g><g transform="translate(328.2,0)"><animateTransform attributeName="transform" type="translate" calcMode="discrete" values="328.2,0;300.9,0;273.5,0;246.2,0;218.8,0;191.4,0;164.1,0;136.8,0;109.4,0;82.1,0;54.7,0;27.4,0;0.0,0" keyTimes="0.0000;0.0833;0.1667;0.2500;0.3333;0.4167;0.5000;0.5833;0.6667;0.7500;0.8333;0.9167;1.0000" begin="10.91s" dur="0.6s" fill="freeze"/><rect x="562.8" y="220.0" width="64.0" height="22" fill="#2A2008"/><rect x="626.8" y="220.0" width="185.2" height="22" fill="#D7A32E"/><g fill="#FFFFFF" transform="translate(569.80,236.00) scale(0.00977,-0.00977)"><path transform="translate(0.0,0)" d="M0 0V768H768V640H256V512H640V384H256V128H768V0Z"/><path transform="translate(1024.0,0)" d="M0 0V768H128V640H256V512H384V640H512V768H768V0H512V384H384V256H256V384H128V0Z"/><path transform="translate(2048.0,0)" d="M0 0V640H128V384H384V640H128V768H640V640H768V0H384V256H128V0Z"/><path transform="translate(3072.0,0)" d="M128 0V128H256V640H128V768H640V640H512V128H640V0Z"/><path transform="translate(4096.0,0)" d="M0 0V768H256V128H768V0Z"/></g><g fill="#FFFFFF" transform="translate(633.80,236.00) scale(0.00977,-0.00977)"><path transform="translate(0.0,0)" d="M0 0V768H128V640H256V512H384V640H512V768H768V0H512V384H384V256H256V384H128V0Z"/></g><g fill="#FFFFFF" transform="translate(643.80,236.00) scale(0.00977,-0.00977)"><path transform="translate(0.0,0)" d="M128 0V128H0V640H128V768H640V640H768V512H512V640H256V128H512V256H768V128H640V0Z"/></g><g fill="#FFFFFF" transform="translate(653.80,236.00) scale(0.00977,-0.00977)"><path transform="translate(0.0,0)" d="M512 128V384H256V128ZM512 512V640H256V512ZM0 0V768H640V640H768V512H640V384H768V128H640V0Z"/></g><g fill="#FFFFFF" transform="translate(663.80,236.00) scale(0.00977,-0.00977)"><path transform="translate(0.0,0)" d="M0 0V768H256V128H768V0Z"/></g><g fill="#FFFFFF" transform="translate(673.80,236.00) scale(0.00977,-0.00977)"><path transform="translate(0.0,0)" d="M128 0V128H0V640H128V768H640V640H768V512H512V640H256V128H512V256H768V128H640V0Z"/></g><g fill="#FFFFFF" transform="translate(683.80,236.00) scale(0.00977,-0.00977)"><path transform="translate(0.0,0)" d="M128 128V256H256V128ZM0 256V768H128V256ZM256 0V128H384V256H512V768H768V256H640V128H512V0Z"/></g><g fill="#FFFFFF" transform="translate(693.80,236.00) scale(0.00977,-0.00977)"><path transform="translate(0.0,0)" d="M512 0V128H768V0ZM512 384V640H256V384ZM0 0V768H640V640H768V384H640V256H512V128H384V256H256V0Z"/></g><g fill="#FFFFFF"><rect x="705.2" y="226.0" width="1.4" height="1.4"/><rect x="706.7" y="226.0" width="1.4" height="1.4"/><rect x="708.1" y="226.0" width="1.4" height="1.4"/><rect x="709.5" y="226.0" width="1.4" height="1.4"/><rect x="710.9" y="226.0" width="1.4" height="1.4"/><rect x="703.8" y="227.4" width="1.4" height="1.4"/><rect x="712.4" y="227.4" width="1.4" height="1.4"/><rect x="703.8" y="228.9" width="1.4" height="1.4"/><rect x="706.7" y="228.9" width="1.4" height="1.4"/><rect x="708.1" y="228.9" width="1.4" height="1.4"/><rect x="709.5" y="228.9" width="1.4" height="1.4"/><rect x="712.4" y="228.9" width="1.4" height="1.4"/><rect x="703.8" y="230.3" width="1.4" height="1.4"/><rect x="706.7" y="230.3" width="1.4" height="1.4"/><rect x="709.5" y="230.3" width="1.4" height="1.4"/><rect x="712.4" y="230.3" width="1.4" height="1.4"/><rect x="703.8" y="231.7" width="1.4" height="1.4"/><rect x="706.7" y="231.7" width="1.4" height="1.4"/><rect x="708.1" y="231.7" width="1.4" height="1.4"/><rect x="709.5" y="231.7" width="1.4" height="1.4"/><rect x="710.9" y="231.7" width="1.4" height="1.4"/><rect x="703.8" y="233.1" width="1.4" height="1.4"/><rect x="705.2" y="234.6" width="1.4" height="1.4"/><rect x="706.7" y="234.6" width="1.4" height="1.4"/><rect x="708.1" y="234.6" width="1.4" height="1.4"/><rect x="709.5" y="234.6" width="1.4" height="1.4"/></g><g fill="#FFFFFF" transform="translate(715.00,236.00) scale(0.00977,-0.00977)"><path transform="translate(0.0,0)" d="M128 0V128H0V640H128V768H640V640H768V512H512V640H256V128H512V256H384V384H768V0Z"/></g><g fill="#FFFFFF" transform="translate(725.00,236.00) scale(0.00977,-0.00977)"><path transform="translate(0.0,0)" d="M0 0V768H128V640H256V512H384V640H512V768H768V0H512V384H384V256H256V384H128V0Z"/></g><g fill="#FFFFFF" transform="translate(735.00,236.00) scale(0.00977,-0.00977)"><path transform="translate(0.0,0)" d="M0 0V640H128V384H384V640H128V768H640V640H768V0H384V256H128V0Z"/></g><g fill="#FFFFFF" transform="translate(745.00,236.00) scale(0.00977,-0.00977)"><path transform="translate(0.0,0)" d="M128 0V128H256V640H128V768H640V640H512V128H640V0Z"/></g><g fill="#FFFFFF" transform="translate(755.00,236.00) scale(0.00977,-0.00977)"><path transform="translate(0.0,0)" d="M0 0V768H256V128H768V0Z"/></g><g fill="#FFFFFF" transform="translate(765.00,236.00) scale(0.00977,-0.00977)"><path transform="translate(0.0,0)" d="M0 0V256H256V0Z"/></g><g fill="#FFFFFF" transform="translate(775.00,236.00) scale(0.00977,-0.00977)"><path transform="translate(0.0,0)" d="M128 0V128H0V640H128V768H640V640H768V512H512V640H256V128H512V256H768V128H640V0Z"/></g><g fill="#FFFFFF" transform="translate(785.00,236.00) scale(0.00977,-0.00977)"><path transform="translate(0.0,0)" d="M512 128V640H256V128ZM128 0V128H0V640H128V768H640V640H768V128H640V0Z"/></g><g fill="#FFFFFF" transform="translate(795.00,236.00) scale(0.00977,-0.00977)"><path transform="translate(0.0,0)" d="M0 0V768H128V640H256V512H384V640H512V768H768V0H512V384H384V256H256V384H128V0Z"/></g></g></g></svg>