<svg xmlns="http://www.w3.org/2000/svg" viewBox="600 253 279 76" width="279" height="76"><rect x="600" y="253" width="279" height="76" fill="#0d1117"/><rect x="39" y="39" width="820" height="270" fill="#391c2c"/><rect x="30" y="30" width="820" height="270" fill="#803F64"/><path d="M30,30 H850 L845,35 H35 V295 L30,300 Z" fill="#ac829a"/><path d="M850,30 V300 H30 L35,295 H845 V35 Z" fill="#4c253c"/><rect x="48" y="48" width="784" height="234" fill="#5DB5B7"/><rect x="639.0" y="220.0" width="139.0" height="22" fill="#555555"/><rect x="778.0" y="220.0" width="34.0" height="22" fill="#803F64"/><g fill="#FFFFFF" transform="translate(646.00,236.00) scale(0.00977,-0.00977)"><path transform="translate(0.0,0)" d="M512 384V640H256V384ZM0 0V768H640V640H768V384H640V256H256V0Z"/><path transform="translate(1024.0,0)" d="M512 0V128H768V0ZM512 384V640H256V384ZM0 0V768H640V640H768V384H640V256H512V128H384V256H256V0Z"/><path transform="translate(2048.0,0)" d="M512 128V640H256V128ZM128 0V128H0V640H128V768H640V640H768V128H640V0Z"/><path transform="translate(3072.0,0)" d="M0 0V768H768V640H256V384H640V256H256V0Z"/><path transform="translate(4096.0,0)" d="M128 0V128H256V640H128V768H640V640H512V128H640V0Z"/><path transform="translate(5120.0,0)" d="M0 0V768H256V128H768V0Z"/><path transform="translate(6144.0,0)" d="M0 0V768H768V640H256V512H640V384H256V128H768V0Z"/><path transform="translate(7680.0,0)" d="M128 128V256H256V128ZM0 256V768H128V256ZM256 0V128H384V256H512V768H768V256H640V128H512V0Z"/><path transform="translate(8704.0,0)" d="M128 0V128H256V640H128V768H640V640H512V128H640V0Z"/><path transform="translate(9728.0,0)" d="M0 0V768H768V640H256V512H640V384H256V128H768V0Z"/><path transform="translate(10752.0,0)" d="M0 0V768H128V384H256V512H384V384H512V768H768V0H512V128H384V256H256V128H128V0Z"/><path transform="translate(11776.0,0)" d="M0 128V256H128V128ZM128 0V128H384V384H128V512H0V640H128V768H640V640H256V512H640V384H768V128H640V0Z"/></g><g fill="#FFFFFF" transform="translate(785.00,236.00) scale(0.00977,-0.00977)"><path transform="translate(0.0,0)" d="M0 0V128H384V384H128V512H384V640H0V768H640V640H768V512H640V384H768V128H640V0Z"/><path transform="translate(1024.0,0)" d="M0 128V256H128V128ZM128 0V128H384V384H0V768H640V640H256V512H640V384H768V128H640V0Z"/></g><rect x="664.0" y="184.0" width="64.0" height="22" fill="#2A2008"/><rect x="728.0" y="184.0" width="84.0" height="22" fill="#D7A32E"/><g fill="#FFFFFF" transform="translate(671.00,200.00) scale(0.00977,-0.00977)"><path transform="translate(0.0,0)" d="M0 0V768H768V640H256V512H640V384H256V128H768V0Z"/><path transform="translate(1024.0,0)" d="M0 0V768H128V640H256V512H384V640H512V768H768V0H512V384H384V256H256V384H128V0Z"/><path transform="translate(2048.0,0)" d="M0 0V640H128V384H384V640H128V768H640V640H768V0H384V256H128V0Z"/><path transform="translate(3072.0,0)" d="M128 0V128H256V640H128V768H640V640H512V128H640V0Z"/><path transform="translate(4096.0,0)" d="M0 0V768H256V128H768V0Z"/></g><g fill="#FFFFFF" transform="translate(735.00,200.00) scale(0.00977,-0.00977)"><path transform="translate(0.0,0)" d="M0 0V768H128V640H256V512H384V640H512V768H768V0H512V384H384V256H256V384H128V0Z"/><path transform="translate(1024.0,0)" d="M128 0V128H0V640H128V768H640V640H768V512H512V640H256V128H512V256H768V128H640V0Z"/><path transform="translate(2048.0,0)" d="M512 128V384H256V128ZM512 512V640H256V512ZM0 0V768H640V640H768V512H640V384H768V128H640V0Z"/><path transform="translate(3072.0,0)" d="M0 0V768H256V128H768V0Z"/><path transform="translate(4096.0,0)" d="M128 0V128H0V640H128V768H640V640H768V512H512V640H256V128H512V256H768V128H640V0Z"/><path transform="translate(5120.0,0)" d="M128 128V256H256V128ZM0 256V768H128V256ZM256 0V128H384V256H512V768H768V256H640V128H512V0Z"/><path transform="translate(6144.0,0)" d="M512 0V128H768V0ZM512 384V640H256V384ZM0 0V768H640V640H768V384H640V256H512V128H384V256H256V0Z"/></g><rect x="604.0" y="148.0" width="84.0" height="22" fill="#2A0608"/><rect x="688.0" y="148.0" width="124.0" height="22" fill="#D31E25"/><g fill="#FFFFFF" transform="translate(611.00,164.00) scale(0.00977,-0.00977)"><path transform="translate(0.0,0)" d="M256 0V384H128V512H0V768H256V512H512V768H768V512H640V384H512V0Z"/><path transform="translate(1024.0,0)" d="M512 128V640H256V128ZM128 0V128H0V640H128V768H640V640H768V128H640V0Z"/><path transform="translate(2048.0,0)" d="M0 128V768H128V128ZM128 0V128H384V256H512V768H768V128H640V0Z"/><path transform="translate(3072.0,0)" d="M256 0V640H0V768H768V640H512V0Z"/><path transform="translate(4096.0,0)" d="M0 128V768H128V128ZM128 0V128H384V256H512V768H768V128H640V0Z"/><path transform="translate(5120.0,0)" d="M512 128V384H256V128ZM512 512V640H256V512ZM0 0V768H640V640H768V512H640V384H768V128H640V0Z"/><path transform="translate(6144.0,0)" d="M0 0V768H768V640H256V512H640V384H256V128H768V0Z"/></g><g fill="#FFFFFF" transform="translate(695.00,164.00) scale(0.00977,-0.00977)"><path transform="translate(0.0,0)" d="M128 128V256H256V128ZM0 256V768H128V256ZM256 0V128H384V256H512V768H768V256H640V128H512V0Z"/><path transform="translate(1024.0,0)" d="M0 0V640H128V384H384V640H128V768H640V640H768V0H384V256H128V0Z"/><path transform="translate(2048.0,0)" d="M512 0V128H768V0ZM512 384V640H256V384ZM0 0V768H640V640H768V384H640V256H512V128H384V256H256V0Z"/><path transform="translate(3072.0,0)" d="M512 128V640H256V128ZM128 0V128H0V640H128V768H640V640H768V128H640V0Z"/><path transform="translate(4096.0,0)" d="M512 128V640H256V128ZM128 0V128H0V640H128V768H640V640H768V128H640V0Z"/><path transform="translate(5120.0,0)" d="M0 0V768H128V640H256V512H384V384H512V768H768V0H512V128H384V256H256V384H128V0Z"/><path transform="translate(6144.0,0)" d="M0 128V256H128V128ZM128 0V128H384V384H128V512H0V640H128V768H640V640H256V512H640V384H768V128H640V0Z"/><path transform="translate(7168.0,0)" d="M0 0V768H128V640H256V512H384V384H512V768H768V0H512V128H384V256H256V384H128V0Z"/><path transform="translate(8192.0,0)" d="M512 128V640H256V128ZM128 0V128H0V640H128V768H640V640H768V128H640V0Z"/><path transform="translate(9216.0,0)" d="M512 128V640H256V128ZM128 0V128H0V640H128V768H640V640H768V128H640V0Z"/><path transform="translate(10240.0,0)" d="M0 0V768H256V512H384V640H512V768H768V640H640V512H512V256H640V128H768V0H512V128H384V256H256V0Z"/></g></svg>