<svg xmlns="http://www.w3.org/2000/svg" viewBox="0 0 193 38" width="193" height="38"><rect width="100%" height="100%" fill="#5DB5B7"/><rect x="10.0" y="8" width="139.0" height="22" fill="#555555"/><rect x="149.0" y="8" width="34.0" height="22" fill="#803F64"/><g fill="#FFFFFF" transform="translate(17.00,24.00) scale(0.00977,-0.00977)"><path transform="translate(0.0,0)" d="M512 384V640H256V384ZM0 0V768H640V640H768V384H640V256H256V0Z"/><path transform="translate(1024.0,0)" d="M512 0V128H768V0ZM512 384V640H256V384ZM0 0V768H640V640H768V384H640V256H512V128H384V256H256V0Z"/><path transform="translate(2048.0,0)" d="M512 128V640H256V128ZM128 0V128H0V640H128V768H640V640H768V128H640V0Z"/><path transform="translate(3072.0,0)" d="M0 0V768H768V640H256V384H640V256H256V0Z"/><path transform="translate(4096.0,0)" d="M128 0V128H256V640H128V768H640V640H512V128H640V0Z"/><path transform="translate(5120.0,0)" d="M0 0V768H256V128H768V0Z"/><path transform="translate(6144.0,0)" d="M0 0V768H768V640H256V512H640V384H256V128H768V0Z"/><path transform="translate(7680.0,0)" d="M128 128V256H256V128ZM0 256V768H128V256ZM256 0V128H384V256H512V768H768V256H640V128H512V0Z"/><path transform="translate(8704.0,0)" d="M128 0V128H256V640H128V768H640V640H512V128H640V0Z"/><path transform="translate(9728.0,0)" d="M0 0V768H768V640H256V512H640V384H256V128H768V0Z"/><path transform="translate(10752.0,0)" d="M0 0V768H128V384H256V512H384V384H512V768H768V0H512V128H384V256H256V128H128V0Z"/><path transform="translate(11776.0,0)" d="M0 128V256H128V128ZM128 0V128H384V384H128V512H0V640H128V768H640V640H256V512H640V384H768V128H640V0Z"/></g><g fill="#FFFFFF" transform="translate(156.00,24.00) scale(0.00977,-0.00977)"><path transform="translate(0.0,0)" d="M0 0V128H384V384H128V512H384V640H0V768H640V640H768V512H640V384H768V128H640V0Z"/><path transform="translate(1024.0,0)" d="M0 128V256H128V128ZM128 0V128H384V384H0V768H640V640H256V512H640V384H768V128H640V0Z"/></g></svg>