<svg xmlns="http://www.w3.org/2000/svg" viewBox="0 0 168 38" width="168" height="38"><rect width="100%" height="100%" fill="#5DB5B7"/><rect x="10.0" y="8" width="64.0" height="22" fill="#2A2008"/><rect x="74.0" y="8" width="84.0" height="22" fill="#D7A32E"/><g fill="#FFFFFF" transform="translate(17.00,24.00) scale(0.00977,-0.00977)"><path transform="translate(0.0,0)" d="M0 0V768H768V640H256V512H640V384H256V128H768V0Z"/><path transform="translate(1024.0,0)" d="M0 0V768H128V640H256V512H384V640H512V768H768V0H512V384H384V256H256V384H128V0Z"/><path transform="translate(2048.0,0)" d="M0 0V640H128V384H384V640H128V768H640V640H768V0H384V256H128V0Z"/><path transform="translate(3072.0,0)" d="M128 0V128H256V640H128V768H640V640H512V128H640V0Z"/><path transform="translate(4096.0,0)" d="M0 0V768H256V128H768V0Z"/></g><g fill="#FFFFFF" transform="translate(81.00,24.00) scale(0.00977,-0.00977)"><path transform="translate(0.0,0)" d="M0 0V768H128V640H256V512H384V640H512V768H768V0H512V384H384V256H256V384H128V0Z"/><path transform="translate(1024.0,0)" d="M128 0V128H0V640H128V768H640V640H768V512H512V640H256V128H512V256H768V128H640V0Z"/><path transform="translate(2048.0,0)" d="M512 128V384H256V128ZM512 512V640H256V512ZM0 0V768H640V640H768V512H640V384H768V128H640V0Z"/><path transform="translate(3072.0,0)" d="M0 0V768H256V128H768V0Z"/><path transform="translate(4096.0,0)" d="M128 0V128H0V640H128V768H640V640H768V512H512V640H256V128H512V256H768V128H640V0Z"/><path transform="translate(5120.0,0)" d="M128 128V256H256V128ZM0 256V768H128V256ZM256 0V128H384V256H512V768H768V256H640V128H512V0Z"/><path transform="translate(6144.0,0)" d="M512 0V128H768V0ZM512 384V640H256V384ZM0 0V768H640V640H768V384H640V256H512V128H384V256H256V0Z"/></g></svg>