<svg xmlns="http://www.w3.org/2000/svg" viewBox="0 0 230 104" width="230" height="104" font-family="ui-monospace,monospace"><defs><linearGradient id="g" x1="0" y1="0" x2="0" y2="1"><stop offset="0" stop-color="#1c1d28"/><stop offset="1" stop-color="#141520"/></linearGradient></defs><path d="M 24 10 H 190 L 216 36 V 84 Q 216 94 206 94 H 24 Q 14 94 14 84 V 20 Q 14 10 24 10 Z" transform="translate(2.5,3)" fill="#0a0810" opacity="0.6"/><path d="M 24 10 H 190 L 216 36 V 84 Q 216 94 206 94 H 24 Q 14 94 14 84 V 20 Q 14 10 24 10 Z" fill="url(#g)" stroke="#5DB5B7" stroke-width="2"/><rect x="26" y="18" width="3" height="12" rx="1.5" fill="#5DB5B7" opacity="0.55"/><rect x="33" y="18" width="3" height="12" rx="1.5" fill="#5DB5B7" opacity="0.55"/><rect x="40" y="18" width="3" height="12" rx="1.5" fill="#5DB5B7" opacity="0.55"/><rect x="47" y="18" width="3" height="12" rx="1.5" fill="#5DB5B7" opacity="0.55"/><rect x="30" y="40" width="170" height="42" rx="5" fill="#5DB5B7"/><rect x="34" y="44" width="162" height="34" rx="3" fill="none" stroke="#0d0e13" stroke-opacity="0.35" stroke-width="1.5"/><text x="115.0" y="59.0" text-anchor="middle" font-size="20" font-weight="800" fill="#0d0e13" letter-spacing="1">CERTS</text><text x="115.0" y="73" text-anchor="middle" font-size="9" font-weight="700" fill="#0d0e13" opacity="0.8" letter-spacing="2">TROPHY ROOM</text><text x="200" y="82" text-anchor="end" font-size="13" fill="#5DB5B7" font-weight="800">&#9656;<animate attributeName="opacity" values="1;0.2;1" dur="1.1s" repeatCount="indefinite"/></text></svg>