<svg xmlns="http://www.w3.org/2000/svg" viewBox="0 0 230 104" width="230" height="104" font-family="ui-monospace,monospace"><defs><linearGradient id="g" x1="0" y1="0" x2="0" y2="1"><stop offset="0" stop-color="#ece3c9"/><stop offset="1" stop-color="#ddd2b4"/></linearGradient></defs><path d="M 24 10 H 190 L 216 36 V 84 Q 216 94 206 94 H 24 Q 14 94 14 84 V 20 Q 14 10 24 10 Z" transform="translate(2.5,3)" fill="#c9bb95" opacity="0.5"/><path d="M 24 10 H 190 L 216 36 V 84 Q 216 94 206 94 H 24 Q 14 94 14 84 V 20 Q 14 10 24 10 Z" fill="url(#g)" stroke="#612C46" stroke-width="2"/><rect x="26" y="18" width="3" height="12" rx="1.5" fill="#612C46" opacity="0.55"/><rect x="33" y="18" width="3" height="12" rx="1.5" fill="#612C46" opacity="0.55"/><rect x="40" y="18" width="3" height="12" rx="1.5" fill="#612C46" opacity="0.55"/><rect x="47" y="18" width="3" height="12" rx="1.5" fill="#612C46" opacity="0.55"/><rect x="30" y="40" width="170" height="42" rx="5" fill="#612C46"/><rect x="34" y="44" width="162" height="34" rx="3" fill="none" stroke="#f4eedd" stroke-opacity="0.35" stroke-width="1.5"/><text x="115.0" y="59.0" text-anchor="middle" font-size="20" font-weight="800" fill="#f4eedd" letter-spacing="1">RESUME</text><text x="115.0" y="73" text-anchor="middle" font-size="9" font-weight="700" fill="#f4eedd" opacity="0.8" letter-spacing="2">◂ PRESS START</text><text x="200" y="82" text-anchor="end" font-size="13" fill="#612C46" font-weight="800">&#9656;<animate attributeName="opacity" values="1;0.2;1" dur="1.1s" repeatCount="indefinite"/></text></svg>