<svg xmlns="http://www.w3.org/2000/svg" viewBox="0 0 880 26" width="880" height="26"><rect x="4.0" y="10.5" width="9.2" height="5" rx="1" fill="#612C46" opacity="0.42"/><rect x="19.2" y="10.5" width="9.2" height="5" rx="1" fill="#417F80" opacity="0.42"/><rect x="34.3" y="10.5" width="9.2" height="5" rx="1" fill="#977220" opacity="0.42"/><rect x="49.5" y="10.5" width="9.2" height="5" rx="1" fill="#612C46" opacity="0.42"/><rect x="64.7" y="10.5" width="9.2" height="5" rx="1" fill="#417F80" opacity="0.42"/><rect x="79.9" y="10.5" width="9.2" height="5" rx="1" fill="#977220" opacity="0.42"/><rect x="95.0" y="10.5" width="9.2" height="5" rx="1" fill="#612C46" opacity="0.42"/><rect x="110.2" y="10.5" width="9.2" height="5" rx="1" fill="#417F80" opacity="0.42"/><rect x="125.4" y="10.5" width="9.2" height="5" rx="1" fill="#977220" opacity="0.42"/><rect x="140.6" y="10.5" width="9.2" height="5" rx="1" fill="#612C46" opacity="0.42"/><rect x="155.7" y="10.5" width="9.2" height="5" rx="1" fill="#417F80" opacity="0.42"/><rect x="170.9" y="10.5" width="9.2" height="5" rx="1" fill="#977220" opacity="0.42"/><rect x="186.1" y="10.5" width="9.2" height="5" rx="1" fill="#612C46" opacity="0.42"/><rect x="201.2" y="10.5" width="9.2" height="5" rx="1" fill="#417F80" opacity="0.42"/><rect x="216.4" y="10.5" width="9.2" height="5" rx="1" fill="#977220" opacity="0.42"/><rect x="231.6" y="10.5" width="9.2" height="5" rx="1" fill="#612C46" opacity="0.42"/><rect x="246.8" y="10.5" width="9.2" height="5" rx="1" fill="#417F80" opacity="0.42"/><rect x="261.9" y="10.5" width="9.2" height="5" rx="1" fill="#977220" opacity="0.42"/><rect x="277.1" y="10.5" width="9.2" height="5" rx="1" fill="#612C46" opacity="0.42"/><rect x="292.3" y="10.5" width="9.2" height="5" rx="1" fill="#417F80" opacity="0.42"/><rect x="307.4" y="10.5" width="9.2" height="5" rx="1" fill="#977220" opacity="0.42"/><rect x="322.6" y="10.5" width="9.2" height="5" rx="1" fill="#612C46" opacity="0.42"/><rect x="337.8" y="10.5" width="9.2" height="5" rx="1" fill="#417F80" opacity="0.42"/><rect x="353.0" y="10.5" width="9.2" height="5" rx="1" fill="#977220" opacity="0.42"/><rect x="368.1" y="10.5" width="9.2" height="5" rx="1" fill="#612C46" opacity="0.42"/><rect x="383.3" y="10.5" width="9.2" height="5" rx="1" fill="#417F80" opacity="0.42"/><rect x="398.5" y="10.5" width="9.2" height="5" rx="1" fill="#977220" opacity="0.42"/><rect x="413.7" y="10.5" width="9.2" height="5" rx="1" fill="#612C46" opacity="0.42"/><rect x="428.8" y="10.5" width="9.2" height="5" rx="1" fill="#417F80" opacity="0.42"/><rect x="444.0" y="10.5" width="9.2" height="5" rx="1" fill="#977220" opacity="0.42"/><rect x="459.2" y="10.5" width="9.2" height="5" rx="1" fill="#612C46" opacity="0.42"/><rect x="474.3" y="10.5" width="9.2" height="5" rx="1" fill="#417F80" opacity="0.42"/><rect x="489.5" y="10.5" width="9.2" height="5" rx="1" fill="#977220" opacity="0.42"/><rect x="504.7" y="10.5" width="9.2" height="5" rx="1" fill="#612C46" opacity="0.42"/><rect x="519.9" y="10.5" width="9.2" height="5" rx="1" fill="#417F80" opacity="0.42"/><rect x="535.0" y="10.5" width="9.2" height="5" rx="1" fill="#977220" opacity="0.42"/><rect x="550.2" y="10.5" width="9.2" height="5" rx="1" fill="#612C46" opacity="0.42"/><rect x="565.4" y="10.5" width="9.2" height="5" rx="1" fill="#417F80" opacity="0.42"/><rect x="580.6" y="10.5" width="9.2" height="5" rx="1" fill="#977220" opacity="0.42"/><rect x="595.7" y="10.5" width="9.2" height="5" rx="1" fill="#612C46" opacity="0.42"/><rect x="610.9" y="10.5" width="9.2" height="5" rx="1" fill="#417F80" opacity="0.42"/><rect x="626.1" y="10.5" width="9.2" height="5" rx="1" fill="#977220" opacity="0.42"/><rect x="641.2" y="10.5" width="9.2" height="5" rx="1" fill="#612C46" opacity="0.42"/><rect x="656.4" y="10.5" width="9.2" height="5" rx="1" fill="#417F80" opacity="0.42"/><rect x="671.6" y="10.5" width="9.2" height="5" rx="1" fill="#977220" opacity="0.42"/><rect x="686.8" y="10.5" width="9.2" height="5" rx="1" fill="#612C46" opacity="0.42"/><rect x="701.9" y="10.5" width="9.2" height="5" rx="1" fill="#417F80" opacity="0.42"/><rect x="717.1" y="10.5" width="9.2" height="5" rx="1" fill="#977220" opacity="0.42"/><rect x="732.3" y="10.5" width="9.2" height="5" rx="1" fill="#612C46" opacity="0.42"/><rect x="747.4" y="10.5" width="9.2" height="5" rx="1" fill="#417F80" opacity="0.42"/><rect x="762.6" y="10.5" width="9.2" height="5" rx="1" fill="#977220" opacity="0.42"/><rect x="777.8" y="10.5" width="9.2" height="5" rx="1" fill="#612C46" opacity="0.42"/><rect x="793.0" y="10.5" width="9.2" height="5" rx="1" fill="#417F80" opacity="0.42"/><rect x="808.1" y="10.5" width="9.2" height="5" rx="1" fill="#977220" opacity="0.42"/><rect x="823.3" y="10.5" width="9.2" height="5" rx="1" fill="#612C46" opacity="0.42"/><rect x="838.5" y="10.5" width="9.2" height="5" rx="1" fill="#417F80" opacity="0.42"/><rect x="853.7" y="10.5" width="9.2" height="5" rx="1" fill="#977220" opacity="0.42"/><rect x="868.8" y="10.5" width="9.2" height="5" rx="1" fill="#612C46" opacity="0.42"/><rect x="0" y="9.0" width="45.5" height="8" rx="1.5" fill="#612C46"><animate attributeName="x" values="-40;880;880" keyTimes="0;0.85;1" dur="4s" repeatCount="indefinite"/><animate attributeName="opacity" values="0.9;0.9;0" keyTimes="0;0.85;1" dur="4s" repeatCount="indefinite"/></rect></svg>