<svg xmlns="http://www.w3.org/2000/svg" viewBox="0 0 880 270" width="880" height="270" font-family="ui-monospace,monospace">
<defs><radialGradient id="bg" cx="0.32" cy="0.4" r="0.9"><stop offset="0" stop-color="#e7dec6"/><stop offset="1" stop-color="#efe8d5"/></radialGradient><pattern id="grid" width="30" height="30" patternUnits="userSpaceOnUse"><path d="M30 0 L0 0 0 30" fill="none" stroke="#d9cfb4" stroke-width="0.5" opacity="0.6"/></pattern><pattern id="lcdScan" width="3" height="3" patternUnits="userSpaceOnUse"><rect width="3" height="1.2" fill="#000" opacity="0.18"/></pattern><linearGradient id="scan" x1="0" y1="0" x2="0" y2="1"><stop offset="0" stop-color="#612C46" stop-opacity="0"/><stop offset="0.5" stop-color="#612C46" stop-opacity="0.5"/><stop offset="1" stop-color="#612C46" stop-opacity="0"/></linearGradient></defs>
<rect width="880" height="270" rx="16" fill="url(#bg)"/>
<rect width="880" height="270" rx="16" fill="url(#grid)"/>
<rect x="1.5" y="1.5" width="877" height="267" rx="15" fill="none" stroke="#ccbf9e" stroke-width="2"/>
<path d="M 38 16 H 16 V 38" stroke="#b8a87f" stroke-width="2" fill="none"/>
<path d="M 842 16 H 864 V 38" stroke="#b8a87f" stroke-width="2" fill="none"/>
<path d="M 38 254 H 16 V 232" stroke="#b8a87f" stroke-width="2" fill="none"/>
<path d="M 842 254 H 864 V 232" stroke="#b8a87f" stroke-width="2" fill="none"/>
<rect x="36" y="34" width="250" height="200" rx="20" ry="26" fill="#ded3b4" stroke="#b3a47c" stroke-width="2"/><rect x="36" y="34" width="250" height="200" rx="20" ry="26" fill="none" stroke="#222D56" stroke-width="1" opacity="0.35"/><circle cx="208" cy="204" r="2.1" fill="#b3a47c"/><circle cx="221" cy="204" r="2.1" fill="#b3a47c"/><circle cx="234" cy="204" r="2.1" fill="#b3a47c"/><circle cx="247" cy="204" r="2.1" fill="#b3a47c"/><circle cx="260" cy="204" r="2.1" fill="#b3a47c"/><circle cx="208" cy="215" r="2.1" fill="#b3a47c"/><circle cx="221" cy="215" r="2.1" fill="#b3a47c"/><circle cx="234" cy="215" r="2.1" fill="#b3a47c"/><circle cx="247" cy="215" r="2.1" fill="#b3a47c"/><circle cx="260" cy="215" r="2.1" fill="#b3a47c"/><circle cx="208" cy="226" r="2.1" fill="#b3a47c"/><circle cx="221" cy="226" r="2.1" fill="#b3a47c"/><circle cx="234" cy="226" r="2.1" fill="#b3a47c"/><circle cx="247" cy="226" r="2.1" fill="#b3a47c"/><circle cx="260" cy="226" r="2.1" fill="#b3a47c"/><rect x="54" y="44" width="214" height="122" rx="9" fill="#cfc09a"/><text x="60" y="40" font-size="8" fill="#7d7350" font-family="ui-monospace,monospace" letter-spacing="1">DOT-MATRIX  W/ STEREO AI</text><rect x="66" y="54" width="190" height="96" rx="4" fill="#aebf86"/><rect x="66" y="54" width="190" height="96" rx="4" fill="url(#lcdScan)" opacity="0.5"/><circle cx="52" cy="92" r="3.6" fill="#94151A"><animate attributeName="opacity" values="1;0.35;1" dur="2.2s" repeatCount="indefinite"/></circle><text x="46" y="108" font-size="7" fill="#7d7350" font-family="ui-monospace,monospace">PWR</text><text x="76" y="74" font-size="12" fill="#4a6b3a" font-weight="700" font-family="ui-monospace,Consolas,monospace" letter-spacing="0.5" opacity="0">&gt; BOOT.SYS  OK<animate attributeName="opacity" values="0;0;1;1;0;0" keyTimes="0;0.040;0.060;0.94;0.97;1" dur="6s" repeatCount="indefinite"/></text><text x="76" y="94" font-size="12" fill="#1e3a1a" font-weight="700" font-family="ui-monospace,Consolas,monospace" letter-spacing="0.5" opacity="0">&gt; LOAD PLAYER<animate attributeName="opacity" values="0;0;1;1;0;0" keyTimes="0;0.180;0.200;0.94;0.97;1" dur="6s" repeatCount="indefinite"/></text><text x="76" y="114" font-size="12" fill="#1e3a1a" font-weight="700" font-family="ui-monospace,Consolas,monospace" letter-spacing="0.5" opacity="0">&gt; @McVarHQ<animate attributeName="opacity" values="0;0;1;1;0;0" keyTimes="0;0.340;0.360;0.94;0.97;1" dur="6s" repeatCount="indefinite"/></text><g opacity="0"><animate attributeName="opacity" values="0;0;1;1;0;0" keyTimes="0;0.5;0.52;0.94;0.97;1" dur="6s" repeatCount="indefinite"/><text x="76" y="136" font-size="13" fill="#612C46" font-weight="800" font-family="ui-monospace,monospace" letter-spacing="1">READY!&#9608;<animate attributeName="opacity" values="1;1;0;0;1" keyTimes="0;0.5;0.51;0.99;1" dur="0.8s" repeatCount="indefinite"/></text></g><g opacity="0"><animate attributeName="opacity" values="0;0;1;1;0;0" keyTimes="0;0.5;0.52;0.94;0.97;1" dur="6s" repeatCount="indefinite"/><g fill="#1e3a1a"><rect x="222" y="134" width="14" height="4"/><rect x="226" y="130" width="10" height="4"/><rect x="228" y="126" width="6" height="4"/><rect x="229" y="122" width="4" height="4"/></g><animateTransform attributeName="transform" type="translate" values="0 0; 0 -6; 0 0; 0 -6; 0 0" dur="0.9s" repeatCount="indefinite"/></g><g fill="#cfc09a" stroke="#b3a47c" stroke-width="1.5"><rect x="74.5" y="165.5" width="11" height="37" rx="3"/><rect x="61.5" y="178.5" width="37" height="11" rx="3"/></g><circle cx="80" cy="184" r="3" fill="#b3a47c"/><circle cx="242" cy="184" r="13" fill="#cfc09a" stroke="#612C46" stroke-width="1.6"><animate attributeName="stroke-opacity" values="1;0.3;1" dur="1.5s" repeatCount="indefinite"/></circle><text x="242" y="188" font-size="11" fill="#612C46" text-anchor="middle" font-family="ui-monospace,monospace" font-weight="700">A</text><circle cx="206" cy="196" r="13" fill="#cfc09a" stroke="#417F80" stroke-width="1.6"><animate attributeName="stroke-opacity" values="1;0.3;1" dur="2.1s" repeatCount="indefinite"/></circle><text x="206" y="200" font-size="11" fill="#417F80" text-anchor="middle" font-family="ui-monospace,monospace" font-weight="700">B</text><rect x="122" y="216" width="34" height="9" rx="4.5" fill="#cfc09a" stroke="#b3a47c" stroke-width="1.2" transform="rotate(-20 139 220)"/><text x="139" y="239" font-size="7" fill="#7d7350" text-anchor="middle" font-family="ui-monospace,monospace">SELECT</text><rect x="168" y="216" width="34" height="9" rx="4.5" fill="#cfc09a" stroke="#b3a47c" stroke-width="1.2" transform="rotate(-20 185 220)"/><text x="185" y="239" font-size="7" fill="#7d7350" text-anchor="middle" font-family="ui-monospace,monospace">START</text>
<text x="330" y="64" font-size="13" fill="#7d7350" font-family="ui-monospace,monospace" letter-spacing="3">▸ PRESS START  //  PROFILE LOADED</text><text x="335" y="127" font-family="ui-monospace,Consolas,monospace" font-size="52" font-weight="800" letter-spacing="2" fill="#c9bb95">VAROON</text><text x="332.5" y="124.5" font-family="ui-monospace,Consolas,monospace" font-size="52" font-weight="800" letter-spacing="2" fill="#417F80" opacity="0.9">VAROON</text><text x="330" y="122" font-family="ui-monospace,Consolas,monospace" font-size="52" font-weight="800" letter-spacing="2" fill="#612C46">VAROON<tspan dx="12" fill="#612C46">&#9608;<animate attributeName="fill-opacity" values="1;1;0;0;1" keyTimes="0;0.49;0.5;0.99;1" dur="1.0s" repeatCount="indefinite"/></tspan></text><text x="330" y="160" font-size="17" fill="#977220" font-weight="700" font-family="ui-monospace,monospace" letter-spacing="2">GAME DEV  ×  DEEP LEARNING</text><text x="330" y="184" font-size="12" fill="#7d7350" font-family="ui-monospace,monospace" letter-spacing="2">VIT CHENNAI // INDIA</text><text x="330" y="225" font-size="11" fill="#7d7350" font-family="ui-monospace,monospace">HP</text><rect x="356" y="214" width="13" height="13" rx="1.5" fill="#612C46"><animate attributeName="opacity" values="1;0.55;1" dur="1.4s" repeatCount="indefinite"/></rect><rect x="372" y="214" width="13" height="13" rx="1.5" fill="#612C46"><animate attributeName="opacity" values="1;0.55;1" dur="1.45s" repeatCount="indefinite"/></rect><rect x="388" y="214" width="13" height="13" rx="1.5" fill="#612C46"><animate attributeName="opacity" values="1;0.55;1" dur="1.5s" repeatCount="indefinite"/></rect><rect x="404" y="214" width="13" height="13" rx="1.5" fill="#612C46"><animate attributeName="opacity" values="1;0.55;1" dur="1.5499999999999998s" repeatCount="indefinite"/></rect><rect x="420" y="214" width="13" height="13" rx="1.5" fill="#612C46"><animate attributeName="opacity" values="1;0.55;1" dur="1.5999999999999999s" repeatCount="indefinite"/></rect><rect x="436" y="214" width="13" height="13" rx="1.5" fill="#612C46"><animate attributeName="opacity" values="1;0.55;1" dur="1.65s" repeatCount="indefinite"/></rect><rect x="452" y="214" width="13" height="13" rx="1.5" fill="#612C46"><animate attributeName="opacity" values="1;0.55;1" dur="1.7s" repeatCount="indefinite"/></rect><rect x="468" y="214" width="13" height="13" rx="1.5" fill="#612C46"><animate attributeName="opacity" values="1;0.55;1" dur="1.75s" repeatCount="indefinite"/></rect><rect x="484" y="214" width="13" height="13" rx="1.5" fill="#612C46"><animate attributeName="opacity" values="1;0.55;1" dur="1.7999999999999998s" repeatCount="indefinite"/></rect><rect x="500" y="214" width="13" height="13" rx="1.5" fill="#612C46"><animate attributeName="opacity" values="1;0.55;1" dur="1.8499999999999999s" repeatCount="indefinite"/></rect><rect x="516" y="214" width="13" height="13" rx="1.5" fill="#612C46"><animate attributeName="opacity" values="1;0.55;1" dur="1.9s" repeatCount="indefinite"/></rect><rect x="532" y="214" width="13" height="13" rx="1.5" fill="#612C46"><animate attributeName="opacity" values="1;0.55;1" dur="1.95s" repeatCount="indefinite"/></rect><rect x="548" y="214" width="13" height="13" rx="1.5" fill="#cabb92"></rect><rect x="564" y="214" width="13" height="13" rx="1.5" fill="#cabb92"></rect><circle cx="594" cy="220.5" r="7" fill="none" stroke="#977220" stroke-width="2"/><text x="594" y="224" font-size="9" fill="#977220" text-anchor="middle" font-family="ui-monospace,monospace" font-weight="700">$</text><text x="607" y="225" font-size="12" fill="#2a2410" font-family="ui-monospace,monospace" font-weight="700">x 99</text>
</svg>